<?xml version="1.0" standalone="no"?>
<!DOCTYPE svg PUBLIC "-//W3C//DTD SVG 20010904//EN"
 "http://www.w3.org/TR/2001/REC-SVG-20010904/DTD/svg10.dtd">
<svg version="1.0" xmlns="http://www.w3.org/2000/svg"
 width="300.000000pt" height="300.000000pt" viewBox="0 0 300.000000 300.000000"
 preserveAspectRatio="xMidYMid meet">
<metadata>
Created by potrace 1.10, written by Peter Selinger 2001-2011
</metadata>
<g transform="translate(0.000000,300.000000) scale(0.100000,-0.100000)"
fill="#000000" stroke="none">
<path d="M1316 2979 c-449 -47 -880 -335 -1109 -740 -312 -553 -248 -1229 163
-1714 233 -274 587 -464 942 -506 129 -15 375 -7 483 16 587 122 1049 584
1170 1170 22 105 30 345 17 471 -43 383 -243 742 -553 989 -313 251 -695 358
-1113 314z m404 -39 c75 -14 91 -19 108 -32 13 -11 14 -11 8 0 -9 15 11 11
114 -22 55 -19 65 -25 63 -43 -2 -16 2 -21 12 -17 11 5 13 2 8 -12 -4 -12 -3
-15 6 -10 6 4 9 16 6 27 -4 10 -4 19 -1 19 18 0 116 -51 116 -60 0 -7 -6 -10
-12 -7 -7 2 -35 -4 -63 -14 -60 -23 -55 -22 -55 -6 0 7 -10 24 -22 37 -13 14
-23 28 -23 32 0 4 -6 13 -14 20 -12 11 -13 11 -6 -1 6 -11 4 -13 -11 -6 -35
14 -113 18 -141 6 -28 -11 -73 -67 -73 -89 0 -17 -9 -15 -64 14 -55 30 -72 27
-24 -5 21 -13 27 -21 16 -21 -18 0 -48 -36 -48 -57 0 -7 7 -10 16 -6 8 3 13
11 10 18 -5 15 35 35 70 35 16 0 23 -4 18 -11 -4 -7 -1 -10 7 -7 8 3 14 12 14
20 0 8 7 24 15 34 13 16 13 17 0 9 -8 -5 -4 3 10 17 43 44 126 58 161 27 12
-11 25 -19 29 -19 19 0 47 -37 43 -59 -2 -17 1 -22 11 -18 8 3 17 1 20 -6 5
-9 7 -9 12 0 3 7 21 20 40 29 29 14 37 14 52 3 9 -7 14 -10 10 -5 -4 5 0 15 8
23 13 14 23 10 87 -30 40 -24 71 -49 70 -55 -2 -6 3 -9 10 -7 6 3 19 0 27 -5
13 -9 13 -11 0 -19 -10 -7 -17 -6 -22 2 -4 7 -8 8 -8 2 0 -5 5 -17 10 -25 8
-13 11 -12 23 4 14 19 15 19 44 -2 49 -35 54 -45 40 -75 -6 -15 -19 -27 -28
-27 -20 0 -41 -24 -37 -42 4 -19 -17 -24 -40 -9 -10 6 -10 13 -2 32 8 18 8 31
0 49 -10 25 -10 24 -5 -4 4 -18 0 -37 -11 -54 -16 -24 -16 -26 1 -38 10 -8 21
-11 25 -9 5 3 11 -6 14 -20 4 -16 11 -22 21 -19 8 4 12 10 9 15 -3 5 -11 7
-17 3 -7 -3 -4 1 6 9 9 8 28 12 42 9 29 -5 29 -6 13 -35 -7 -12 -12 -49 -13
-81 0 -37 -5 -61 -12 -63 -9 -3 -10 4 -2 29 11 41 11 71 -1 43 -7 -17 -9 -17
-9 -2 -1 9 -5 17 -11 17 -5 0 -7 -6 -4 -14 3 -7 -2 -20 -10 -29 -8 -8 -13 -17
-10 -20 3 -3 -4 -8 -15 -12 -12 -3 -19 -11 -16 -16 4 -5 -1 -9 -9 -9 -9 0 -16
-4 -16 -10 0 -5 6 -10 13 -10 18 0 20 -49 2 -56 -26 -10 -6 -24 25 -17 18 3
36 0 46 -8 14 -11 13 -14 -8 -25 -23 -12 -43 -9 -34 5 3 4 0 8 -7 8 -7 0 -20
4 -29 8 -11 4 -18 3 -18 -4 0 -6 4 -11 10 -11 14 0 80 -72 74 -81 -3 -5 -1 -9
3 -9 5 0 9 -9 10 -20 1 -11 -2 -20 -7 -20 -5 0 -7 -9 -5 -20 2 -11 -1 -20 -6
-20 -6 0 -8 -4 -5 -8 3 -5 -4 -15 -15 -22 -25 -19 -24 -27 4 -33 12 -2 31 -8
42 -12 17 -6 17 -4 -3 12 -21 17 -22 22 -12 48 20 51 21 82 5 121 -12 29 -13
39 -3 45 7 4 16 5 20 3 4 -3 8 0 8 7 0 19 -31 49 -51 49 -29 0 -29 58 0 102
28 44 38 43 22 -3 -10 -30 -10 -31 14 -25 19 5 25 2 25 -10 0 -9 12 -43 27
-76 22 -49 24 -63 15 -79 -19 -30 -13 -36 8 -10 17 19 23 21 35 11 8 -7 15
-10 15 -6 0 3 16 -1 37 -9 55 -23 50 -12 -7 15 -48 22 -78 46 -79 63 0 4 -7
17 -15 30 -8 12 -17 32 -21 45 -6 22 -6 22 20 -4 14 -14 32 -23 40 -21 7 3 16
-1 19 -9 8 -20 46 -18 46 4 0 9 3 27 6 40 4 13 2 22 -5 22 -6 0 -11 -9 -11
-19 0 -26 -13 -33 -46 -25 l-27 7 24 14 c22 13 11 12 -26 -3 -11 -4 -20 5 -30
30 -19 44 -19 77 -1 146 11 40 11 58 3 68 -8 10 -5 19 14 35 13 12 20 19 15
15 -18 -14 -36 -8 -36 12 0 14 7 20 23 20 15 0 45 -25 95 -77 71 -76 72 -79
66 -120 -3 -23 -1 -49 5 -60 9 -15 10 -12 5 14 -4 18 -3 40 1 50 6 17 7 17 20
0 8 -11 11 -26 8 -35 -4 -13 -2 -14 4 -4 7 9 19 -1 45 -41 48 -71 99 -173 91
-181 -4 -3 -2 -6 4 -6 5 0 15 -11 21 -25 9 -20 9 -25 -2 -25 -25 0 -46 12 -46
26 0 7 -11 16 -25 20 -29 7 -32 19 -7 33 16 9 16 10 0 16 -25 10 -48 -1 -48
-22 0 -15 2 -15 15 3 22 29 18 4 -6 -35 -11 -18 -23 -31 -26 -27 -3 3 0 14 7
23 7 10 -2 3 -19 -15 -17 -18 -36 -30 -42 -27 -6 4 1 17 17 31 14 14 24 27 21
30 -3 3 -17 -6 -31 -19 -30 -28 -26 -62 5 -54 11 3 19 2 19 -3 0 -4 8 -11 17
-14 15 -6 15 -4 -2 14 -18 19 -18 20 0 20 19 0 65 -37 65 -52 0 -5 -4 -6 -10
-3 -5 3 -10 2 -10 -3 0 -11 24 -22 46 -22 8 0 14 5 14 11 0 6 -8 8 -18 5 -13
-4 -18 -1 -18 14 0 11 6 20 13 20 6 0 16 6 20 14 5 9 18 12 36 9 28 -5 55 -49
61 -98 1 -11 7 -29 13 -40 6 -11 21 -69 34 -130 20 -92 23 -138 23 -285 -1
-96 -6 -197 -13 -225 -6 -27 -14 -63 -17 -80 -11 -62 -25 -105 -34 -105 -5 0
-7 -6 -5 -13 6 -16 -20 -90 -34 -95 -6 -2 -15 8 -21 22 -5 14 -15 26 -22 26
-10 0 -10 -2 -1 -8 14 -9 11 -39 -8 -74 -7 -13 -12 -25 -12 -28 4 -24 -60 -64
-92 -57 -21 3 -29 -1 -41 -24 -8 -16 -20 -28 -26 -26 -6 1 -12 -11 -13 -26 -5
-77 -79 -123 -147 -93 -10 5 -15 12 -12 17 3 5 -2 9 -11 9 -8 0 -18 -7 -21
-15 -4 -8 -15 -15 -25 -15 -15 0 -18 -6 -15 -24 6 -35 -36 -92 -80 -106 -39
-13 -114 -6 -125 11 -4 7 -24 8 -53 4 -38 -6 -46 -11 -46 -28 0 -26 -40 -87
-57 -87 -7 0 -13 -4 -13 -10 0 -12 -55 -41 -64 -33 -3 4 -6 2 -6 -4 0 -8 -29
-14 -75 -14 -65 0 -153 74 -130 110 7 12 -3 17 -57 26 -57 9 -90 45 -87 92 3
31 0 38 -14 37 -9 -1 -17 2 -17 7 0 12 -30 11 -31 -1 -1 -5 -2 -19 -3 -29 -1
-21 -49 -76 -81 -94 -29 -15 -95 -26 -101 -16 -10 16 -44 10 -44 -8 -1 -32
-26 -53 -66 -55 -43 -3 -57 -14 -45 -37 17 -32 -15 -111 -44 -111 -7 0 -18 -7
-25 -15 -18 -22 -30 -18 -30 8 0 53 51 222 81 268 52 81 188 158 317 179 107
18 136 39 184 137 26 53 29 65 17 79 -16 20 -73 49 -122 62 -37 10 -37 10 -65
-31 -41 -64 -51 -80 -63 -102 -5 -11 -34 -34 -62 -50 -68 -37 -185 -156 -224
-225 -40 -73 -69 -167 -84 -267 l-11 -81 -31 13 c-45 19 -76 67 -71 113 2 20
10 42 19 48 19 14 19 34 0 34 -9 0 -22 6 -29 12 -11 11 -11 15 3 25 15 11 15
12 -1 13 -43 1 -98 101 -66 121 9 6 10 9 1 9 -7 0 -10 7 -6 17 4 10 2 14 -4
10 -34 -21 -19 -123 22 -155 14 -11 25 -27 25 -35 0 -9 7 -20 16 -25 14 -8 15
-14 6 -42 -7 -18 -9 -43 -6 -56 5 -20 2 -24 -15 -24 -12 0 -21 -4 -21 -8 0 -5
-14 -6 -31 -4 -24 4 -30 9 -26 23 3 11 1 17 -4 13 -5 -3 -9 -12 -9 -20 0 -17
-2 -17 -35 -2 -28 12 -33 35 -10 44 8 4 13 10 10 14 -7 12 32 23 47 14 8 -5 6
-10 -8 -15 -18 -7 -18 -8 1 -8 37 -2 65 27 65 65 0 19 -4 33 -9 30 -9 -6 -26
22 -23 37 5 21 -15 3 -25 -23 -6 -17 -17 -29 -23 -28 -7 2 -26 -23 -43 -55
-29 -56 -30 -58 -11 -72 10 -8 38 -20 62 -26 24 -7 42 -17 42 -25 0 -8 8 -14
18 -14 13 0 14 2 3 9 -10 7 -8 12 10 25 30 21 46 20 53 -2 4 -10 15 -28 27
-40 21 -24 18 -42 -8 -42 -11 0 -14 7 -9 28 5 20 4 23 -4 12 -27 -41 12 -72
42 -32 9 12 27 17 59 17 53 0 79 -17 80 -54 l1 -26 7 24 c3 13 15 28 26 32 19
7 19 8 -2 8 -53 2 -70 25 -29 41 34 13 58 52 59 99 2 36 5 41 32 47 42 9 75
31 75 52 0 15 7 17 41 14 41 -4 139 31 139 49 0 5 7 5 17 2 12 -5 14 -3 8 7
-5 9 -4 11 3 6 7 -4 12 -18 12 -32 0 -22 -2 -24 -22 -13 -22 11 -22 11 -5 -7
18 -19 19 -19 32 0 12 16 12 23 1 44 -10 19 -10 32 -2 53 12 33 41 41 31 9
-14 -43 60 -120 113 -120 12 0 24 -12 32 -31 15 -35 83 -89 112 -89 25 0 23
-13 -11 -49 -16 -17 -26 -32 -23 -32 4 -1 18 -2 32 -3 21 -1 25 -6 23 -28 -1
-16 3 -28 9 -28 6 0 8 -9 5 -20 -3 -11 -1 -20 4 -20 13 0 10 72 -4 91 -7 9
-18 18 -25 20 -10 3 -8 11 8 32 27 35 63 36 78 2 19 -42 52 -27 52 24 0 20 76
81 102 81 10 0 35 -7 55 -15 42 -18 43 -18 43 -5 0 5 -19 14 -42 21 -59 15
-59 15 -43 52 7 17 15 30 17 28 1 -2 13 1 26 8 15 8 27 9 35 3 7 -6 26 -12 42
-14 25 -2 31 -8 33 -33 3 -29 3 -29 -12 -10 -15 19 -15 19 -9 -4 4 -17 3 -22
-6 -17 -6 4 -11 4 -10 -1 6 -37 -2 -50 -31 -48 -20 1 -30 -3 -30 -12 0 -10 5
-11 17 -4 11 6 24 6 35 0 9 -5 24 -6 33 -2 16 5 16 7 1 15 -38 21 -2 63 41 47
13 -5 23 -5 23 0 0 5 -9 11 -20 14 -11 3 -20 14 -20 24 0 14 12 22 44 31 49
13 106 69 106 104 0 12 7 30 17 40 15 17 17 17 35 1 12 -10 34 -16 63 -16 40
1 45 -2 54 -28 10 -30 1 -46 -21 -33 -7 4 -6 -1 3 -12 9 -10 19 -26 21 -34 3
-9 8 -2 12 17 4 19 3 48 -4 68 -11 33 -10 37 19 64 21 19 31 39 31 58 0 32 40
68 40 36 0 -10 7 -27 15 -37 15 -20 15 -20 15 0 -1 10 -7 30 -15 44 -20 34
-19 38 9 33 51 -10 126 58 126 114 0 16 4 21 15 17 8 -4 15 -11 15 -18 0 -41
-149 -298 -168 -291 -7 3 -10 0 -7 -5 10 -15 -45 -84 -147 -187 -93 -94 -112
-108 -102 -75 5 13 4 14 -4 3 -5 -7 -16 -10 -23 -7 -8 4 -6 1 4 -7 17 -14 13
-19 -60 -70 -99 -70 -272 -157 -388 -196 -86 -28 -298 -71 -347 -70 -13 0 -60
0 -106 -1 -45 -1 -111 2 -147 5 -60 7 -65 9 -65 32 0 25 23 57 33 47 3 -3 3
-13 0 -22 -4 -10 -2 -13 5 -8 17 10 15 33 -4 40 -22 8 -41 -9 -49 -45 -4 -18
-13 -29 -23 -29 -14 0 -111 24 -183 46 -9 2 -21 15 -27 29 -6 13 -21 29 -34
35 l-23 11 23 -17 c19 -14 31 -44 18 -44 -15 0 -35 14 -30 21 3 5 -2 6 -11 3
-17 -7 -205 81 -205 96 0 6 -3 9 -7 8 -22 -6 -180 105 -268 189 -114 107 -210
235 -286 380 -37 71 -39 78 -22 84 16 7 16 8 -4 8 -17 1 -26 15 -47 69 -33 84
-72 240 -62 249 10 11 41 -12 41 -30 0 -9 4 -19 8 -23 4 -4 7 2 7 14 0 25 -25
52 -49 52 -14 0 -20 11 -25 42 -4 27 -3 44 3 46 7 2 5 10 -4 19 -8 8 -15 19
-15 24 0 12 59 2 86 -16 19 -12 20 -19 14 -54 -10 -57 -4 -107 20 -152 l20
-39 -23 -11 c-13 -6 -24 -17 -24 -24 0 -10 5 -10 24 2 12 8 23 19 23 24 0 5 6
9 14 9 13 0 13 -4 0 -28 -20 -39 -17 -71 11 -108 20 -26 24 -41 21 -76 -6 -55
14 -95 64 -132 21 -16 43 -41 48 -55 5 -15 21 -38 35 -51 22 -20 26 -31 21
-58 -5 -26 -3 -31 9 -26 11 4 14 15 10 38 -4 29 0 36 36 65 23 18 41 30 41 26
0 -4 6 -2 14 4 24 20 6 77 -21 67 -9 -4 -21 1 -28 10 -11 16 -41 11 -31 -5 3
-4 -10 -15 -29 -24 -19 -9 -35 -12 -35 -7 0 6 -6 10 -13 10 -8 0 -24 9 -37 20
-13 11 -26 20 -29 20 -12 0 -40 65 -39 93 0 16 9 34 21 42 12 8 16 15 10 15
-15 0 -57 39 -71 66 -6 12 -7 26 -2 34 5 8 6 18 4 22 -3 4 1 8 9 8 8 0 14 9
13 20 0 11 -4 20 -8 20 -13 0 -45 34 -41 43 2 4 0 7 -6 7 -6 0 -7 7 -4 17 4
11 3 14 -5 9 -8 -5 -10 9 -6 46 3 29 5 61 5 71 0 10 5 15 11 11 6 -4 9 -1 6 7
-2 7 9 26 26 41 17 15 27 28 23 28 -15 0 -52 -23 -60 -36 -6 -11 -14 -9 -40 6
-18 11 -45 20 -61 20 l-29 0 6 148 c4 81 12 167 18 192 6 25 13 54 14 65 2 11
4 21 5 23 4 4 7 22 9 46 1 33 45 42 60 12 11 -20 11 -20 5 2 -6 26 4 29 22 5
16 -21 18 -37 4 -28 -6 4 -9 1 -8 -7 2 -7 -3 -12 -10 -10 -23 4 -12 -16 13
-22 14 -4 25 -12 25 -19 0 -8 4 -7 11 3 9 12 10 11 6 -5 -3 -11 -8 -29 -12
-40 -5 -15 -4 -16 3 -6 5 7 14 11 20 8 14 -9 45 29 39 47 -3 8 -22 16 -42 18
-19 2 -34 8 -33 13 2 6 5 9 8 8 3 -1 14 -5 24 -9 11 -4 -2 14 -28 40 -38 39
-49 46 -61 36 -24 -20 -28 10 -9 66 26 80 116 255 128 251 6 -2 12 -13 14 -24
2 -15 10 -20 28 -19 28 1 29 5 9 32 -8 10 -15 15 -14 9 3 -25 -2 -26 -20 -4
-25 31 -18 40 18 26 35 -13 61 -4 61 23 0 22 -5 23 -35 10 -19 -8 -19 -9 3 -9
12 -1 22 -5 22 -11 0 -12 -40 -13 -59 -1 -12 8 -10 16 11 48 53 81 149 191
170 196 12 4 19 9 15 13 -9 10 60 75 157 146 59 44 81 56 87 46 7 -10 9 -9 9
4 0 21 105 82 126 74 8 -3 12 -2 9 4 -7 12 14 23 115 60 99 36 109 33 146 -50
15 -34 40 -72 56 -85 l30 -25 -39 0 c-21 0 -51 -8 -66 -19 -27 -17 -27 -19 -8
-24 27 -7 26 -16 -3 -60 -17 -25 -21 -38 -13 -41 7 -3 3 -4 -8 -1 -18 4 -20 0
-21 -38 -1 -36 0 -39 8 -17 5 13 17 33 26 43 9 11 15 20 13 21 -2 0 3 15 12
31 13 24 16 26 17 10 0 -11 -7 -33 -15 -49 -14 -25 -14 -27 0 -16 25 21 34 71
18 103 -8 15 -11 32 -8 38 8 11 113 10 121 -3 7 -11 94 -10 94 1 0 6 -16 7
-35 4 -27 -4 -43 0 -69 18 -48 32 -73 89 -41 89 8 0 15 5 15 11 0 5 -4 8 -9 4
-5 -3 -12 -1 -15 4 -4 5 -1 11 6 14 8 2 7 3 -2 3 -10 -1 -15 -13 -15 -39 0
-20 -1 -37 -2 -37 0 0 -11 16 -23 36 -22 39 -24 88 -2 90 6 1 17 2 23 3 5 0 7
6 4 12 -5 7 -15 5 -31 -6 -22 -14 -27 -14 -46 0 -21 14 -22 15 -3 17 27 2 37
4 55 11 8 3 32 8 52 11 34 5 37 4 41 -22 4 -25 4 -25 6 5 1 27 5 33 24 33 12
0 47 4 77 9 61 10 289 5 360 -9z m726 -440 c1 -33 -12 -38 -41 -16 -16 12 -17
16 -6 30 22 27 46 20 47 -14z m322 -409 c20 -12 10 -46 -12 -46 -13 0 -20 8
-22 28 -3 28 9 34 34 18z m-2501 -296 c-4 -8 -11 -15 -17 -15 -7 0 -7 6 0 21
13 23 26 19 17 -6z m1323 -796 c0 -5 7 -9 15 -9 19 0 65 -29 65 -40 0 -5 -6
-15 -13 -22 -7 -7 -16 -20 -20 -28 -25 -56 -71 -96 -105 -92 -12 2 -29 -1 -36
-8 -8 -6 -18 -10 -22 -9 -5 1 -12 0 -16 -1 -5 -1 -11 -3 -15 -4 -35 -7 -103
-32 -103 -37 0 -10 -60 -33 -67 -26 -9 9 75 84 121 108 41 21 83 67 78 83 -2
5 1 12 6 15 5 3 21 25 35 47 22 35 30 41 51 37 14 -3 26 -9 26 -14z m-1115
-231 c35 -16 31 -35 -10 -55 -19 -9 -35 -22 -35 -29 0 -19 -20 -28 -33 -15 -8
8 -8 11 1 11 7 0 12 4 12 9 0 5 -8 7 -19 4 -13 -3 -20 2 -24 16 -8 30 -5 35
20 36 13 0 31 8 40 18 21 20 16 20 48 5z m413 -301 c4 -34 -22 -47 -46 -22
-16 17 -16 17 1 12 9 -4 17 -2 17 3 0 6 -9 10 -20 10 -11 0 -20 -4 -20 -10 0
-5 -8 -10 -17 -10 -14 1 -11 6 12 26 39 32 69 28 73 -9z m1072 -97 c0 -24 -20
-36 -31 -19 -14 22 -10 35 11 36 13 1 20 -4 20 -17z"/>
<path d="M1466 2924 c-8 -31 15 -53 55 -54 19 0 31 -10 48 -40 13 -23 20 -47
17 -55 -3 -8 -1 -15 3 -15 15 0 20 27 8 39 -9 9 -8 11 6 6 9 -4 17 -3 17 3 0
5 9 12 20 15 11 3 20 11 20 18 0 10 -3 10 -12 1 -15 -15 -58 -16 -58 -1 0 5
-4 8 -8 5 -5 -3 -15 6 -22 19 -10 19 -18 23 -39 19 -36 -7 -57 16 -41 45 6 12
7 21 1 21 -5 0 -12 -12 -15 -26z"/>
<path d="M1330 2923 c0 -6 5 -15 10 -18 17 -10 11 -44 -9 -55 -24 -13 -51 -3
-51 19 -1 14 -2 14 -11 -1 -5 -10 -17 -18 -24 -18 -8 0 -15 -7 -15 -17 0 -14
2 -14 20 2 19 18 20 17 21 -6 1 -16 3 -18 6 -7 2 10 10 15 19 11 20 -7 64 24
64 45 0 20 -29 64 -30 45z"/>
<path d="M1550 2917 c0 -13 36 -35 80 -49 22 -7 50 10 49 30 0 14 -2 14 -6 2
-9 -22 -24 -29 -38 -17 -9 9 -7 16 9 30 21 19 21 19 -4 3 -45 -29 -53 -30 -72
-7 -12 16 -18 19 -18 8z"/>
<path d="M1440 2908 c0 -27 11 -48 32 -59 18 -10 19 -9 6 11 -7 13 -19 32 -25
44 -10 16 -13 17 -13 4z"/>
<path d="M1286 2903 c-3 -3 -3 -10 0 -14 7 -12 34 -11 34 0 0 11 -26 22 -34
14z"/>
<path d="M1804 2886 c23 -18 46 -21 46 -5 0 5 -4 7 -10 4 -5 -3 -20 -1 -32 5
-22 11 -22 10 -4 -4z"/>
<path d="M1043 2838 c3 -9 -2 -23 -13 -33 -15 -13 -17 -21 -8 -35 13 -20 3
-55 -12 -45 -6 4 -7 -1 -3 -11 4 -11 2 -15 -4 -11 -6 4 -8 -4 -5 -21 5 -26 5
-26 15 -4 6 12 13 22 17 22 12 0 20 -28 14 -45 -7 -17 -44 -31 -53 -19 -3 5
-13 10 -23 12 -12 2 -15 -3 -11 -17 3 -14 -3 -21 -24 -29 -25 -9 -26 -10 -5
-11 12 -1 25 -8 29 -17 10 -26 -26 -135 -54 -165 -26 -27 -27 -27 -41 -8 -7
10 -20 19 -29 19 -14 0 -14 -2 3 -15 18 -15 18 -16 -15 -44 -33 -29 -71 -46
-71 -31 0 4 7 13 16 20 19 17 41 56 25 46 -6 -4 -11 -2 -11 5 0 7 -10 -3 -23
-22 -12 -19 -38 -42 -57 -52 l-35 -18 63 4 c38 2 67 9 72 16 4 8 13 10 19 7 6
-4 11 -1 11 7 0 10 7 13 18 10 39 -10 109 90 120 171 3 27 14 47 29 59 13 11
22 22 19 24 -3 3 -12 -2 -21 -10 -20 -20 -51 -12 -34 9 13 16 33 19 24 4 -3
-6 9 -1 29 11 19 11 44 38 56 61 20 38 20 42 4 59 -9 10 -20 16 -24 14 -16
-10 -19 40 -3 57 14 15 14 21 3 31 -10 10 -12 9 -7 -5z m37 -117 c0 -3 -4 -12
-9 -20 -8 -12 -11 -12 -24 0 -19 18 0 54 20 37 7 -6 13 -13 13 -17z"/>
<path d="M983 2819 c1 -8 -11 -27 -28 -42 -28 -24 -29 -26 -7 -24 12 1 22 5
22 10 0 4 12 19 28 33 16 16 20 24 10 20 -9 -2 -19 0 -22 7 -3 7 -4 5 -3 -4z"/>
<path d="M1322 2809 c-7 -12 -19 -18 -26 -16 -7 3 -19 1 -27 -4 -10 -6 -5 -9
18 -9 23 0 36 6 43 21 15 27 8 34 -8 8z"/>
<path d="M1475 2820 c-3 -5 -3 -14 0 -20 9 -15 -13 -50 -32 -50 -9 0 -33 -18
-55 -39 -34 -36 -41 -53 -41 -106 0 -5 -8 -19 -19 -29 -13 -15 -18 -16 -18 -5
0 8 -7 22 -14 32 -12 16 -17 16 -35 5 -13 -8 -21 -23 -21 -40 0 -19 -13 -41
-41 -69 -45 -45 -69 -93 -69 -138 0 -25 -4 -29 -25 -27 -14 0 -25 4 -25 7 0 9
-36 49 -44 49 -13 0 -26 -52 -17 -67 5 -10 5 -21 -1 -27 -5 -6 -16 -20 -24
-31 -9 -11 -13 -15 -9 -8 6 13 -52 33 -95 33 -62 -1 -178 -90 -181 -140 -2
-28 -3 -33 -12 -47 -4 -7 -3 -22 3 -33 10 -18 8 -20 -20 -20 -23 0 -35 -7 -50
-32 -23 -37 -28 -103 -7 -93 6 4 1 -3 -13 -14 -32 -26 -47 -26 -55 -1 -3 11
-15 20 -26 20 -27 0 -24 -19 6 -30 31 -12 33 -30 3 -30 -24 0 -63 20 -41 20 9
0 7 6 -5 18 -9 10 -26 18 -37 17 -25 0 -26 28 -1 33 11 3 16 0 12 -7 -4 -6 -3
-11 2 -11 6 0 12 7 16 15 7 18 56 20 56 3 0 -10 3 -9 9 1 6 10 11 5 16 -18 4
-18 9 -30 12 -27 3 2 2 18 -2 35 l-7 31 -60 -5 c-56 -4 -98 -24 -98 -46 0 -4
17 -11 38 -16 22 -6 36 -15 34 -23 -4 -17 16 -30 46 -30 12 0 22 -6 22 -14 0
-10 -16 -14 -62 -13 -45 0 -75 -6 -105 -21 -48 -25 -102 -85 -110 -125 -8 -38
-18 -24 -14 19 1 19 -2 34 -8 34 -7 0 -11 -23 -11 -57 -1 -32 -7 -71 -15 -88
l-13 -30 -1 41 c-1 33 -6 43 -26 54 -28 15 -41 9 -31 -16 5 -13 9 -14 20 -5
37 31 30 -87 -7 -126 -32 -36 -38 -27 -12 19 23 40 25 65 4 52 -5 -3 -7 -9 -4
-14 8 -13 -19 -63 -57 -106 -29 -33 -30 -36 -10 -30 13 4 22 3 22 -3 0 -5 -10
-12 -22 -14 -20 -5 -20 -5 2 -4 14 1 26 9 26 17 1 8 2 21 3 28 0 6 7 12 15 12
19 0 80 70 106 120 11 22 21 40 23 40 1 0 2 -18 1 -40 -1 -28 -8 -46 -23 -59
-13 -11 -24 -27 -25 -36 -1 -9 -13 -22 -27 -28 -14 -8 -25 -22 -26 -37 l-2
-25 7 25 c5 14 16 26 26 28 11 3 16 0 12 -7 -4 -6 -1 -11 6 -11 9 0 9 -3 -2
-10 -12 -8 -11 -10 7 -10 12 0 26 -7 31 -16 8 -15 10 -15 15 0 4 10 1 16 -9
16 -8 0 -12 5 -9 10 3 6 2 10 -2 10 -14 0 -9 63 5 68 7 2 10 8 6 13 -3 5 0 10
5 10 6 1 17 2 24 3 13 2 11 29 -2 34 -5 1 -6 17 -4 35 3 18 6 40 6 50 1 9 5
17 8 17 4 0 11 10 15 22 3 12 17 33 30 47 13 14 22 32 19 39 -3 7 0 10 5 7 5
-3 27 3 49 14 21 11 48 18 60 16 12 -2 21 0 21 5 0 4 9 6 20 3 11 -3 20 -10
20 -17 0 -6 5 -4 10 4 8 13 10 13 10 -2 0 -10 5 -15 13 -12 8 3 12 17 9 37 -3
27 1 35 27 50 17 10 34 19 38 20 5 1 6 7 4 12 -15 34 -8 79 16 103 20 20 27
22 34 11 6 -10 9 -10 9 -1 0 6 7 12 15 12 12 0 14 9 11 35 -6 48 4 106 17 98
5 -3 8 -2 5 3 -3 5 8 21 23 36 16 15 29 24 29 20 0 -4 5 1 11 11 6 9 14 15 20
12 5 -4 9 -1 9 6 0 7 2 10 6 7 3 -3 21 -2 40 2 20 5 34 4 34 -2 0 -5 4 -6 10
-3 5 3 20 -1 32 -9 27 -19 61 -21 56 -4 -5 15 22 49 34 42 4 -3 8 0 8 6 0 6 5
8 10 5 6 -3 10 -2 10 4 0 5 16 8 35 6 32 -3 35 -1 36 23 1 53 31 132 49 132 6
0 9 4 6 8 -2 4 8 16 24 27 24 16 27 24 23 51 -6 36 10 52 32 34 20 -17 19 -27
-4 -35 -13 -4 -18 -12 -14 -22 6 -14 7 -14 18 0 7 10 20 14 32 11 15 -4 23 0
28 15 3 11 11 20 17 18 8 -1 11 14 9 44 -2 45 15 79 40 79 6 0 8 3 6 8 -3 4 1
13 9 20 8 7 14 10 14 6 0 -3 6 -2 13 3 6 5 26 8 42 6 17 -2 40 -5 53 -6 12 -1
22 -6 22 -11 0 -5 3 -6 7 -3 3 4 11 -1 18 -10 7 -10 14 -12 18 -6 11 18 -31
45 -79 51 -46 5 -46 5 -41 38 5 32 -5 45 -18 24z m-415 -465 c10 -11 9 -18 -3
-30 -22 -22 -27 -19 -27 15 0 33 11 38 30 15z"/>
<path d="M1437 2788 c-10 -5 -25 -7 -33 -4 -9 3 -12 1 -9 -4 8 -13 52 -13 60
1 10 15 2 19 -18 7z"/>
<path d="M824 2758 c-3 -5 -3 -26 1 -46 7 -34 8 -35 14 -12 8 30 41 40 42 13
0 -10 3 -13 6 -5 2 6 8 10 11 8 4 -2 8 8 8 22 1 15 -1 21 -3 15 -5 -15 -33
-18 -33 -4 0 13 -39 21 -46 9z m29 -17 c-4 -3 -11 -10 -15 -15 -5 -5 -8 0 -8
12 0 15 4 20 16 15 9 -3 12 -9 7 -12z"/>
<path d="M1281 2756 c-18 -10 -20 -15 -10 -19 10 -4 9 -6 -3 -6 -10 -1 -18 4
-18 10 0 5 -5 7 -11 4 -10 -7 51 -55 68 -55 4 0 0 5 -9 11 -22 12 -23 23 -2
44 22 21 15 26 -15 11z"/>
<path d="M2185 2759 c4 -6 9 -8 13 -5 3 3 10 -2 17 -11 9 -13 14 -13 20 -3 5
8 4 11 -2 7 -6 -4 -13 0 -17 8 -3 8 -13 15 -21 15 -9 0 -13 -5 -10 -11z"/>
<path d="M2246 2731 c-7 -11 0 -15 18 -12 5 1 5 -6 2 -16 -6 -15 -5 -16 5 -5
11 10 10 15 -3 28 -11 11 -18 12 -22 5z"/>
<path d="M923 2709 c-16 -16 8 -39 35 -33 13 4 18 12 15 25 -6 21 -33 25 -50
8z"/>
<path d="M705 2700 c-3 -6 1 -17 9 -26 17 -17 22 -49 6 -39 -5 3 -2 -11 6 -31
11 -26 12 -39 4 -49 -8 -10 -7 -14 2 -18 7 -3 -1 -3 -18 0 -23 3 -33 1 -37
-11 -9 -22 24 -21 72 3 49 26 63 43 54 69 -8 21 -8 20 -19 -3 -10 -20 -9 -23
5 -18 9 3 5 -4 -9 -16 -33 -27 -42 -26 -30 5 13 32 13 43 0 24 -7 -11 -10 -2
-10 31 0 29 -6 51 -15 59 -8 7 -12 16 -9 21 3 5 3 9 0 9 -3 0 -8 -5 -11 -10z"/>
<path d="M747 2680 c7 -8 16 -27 22 -40 7 -19 10 -21 10 -6 1 12 6 16 16 12 8
-3 15 -1 15 5 0 6 -8 9 -17 7 -10 -2 -27 6 -38 17 -11 12 -15 14 -8 5z"/>
<path d="M1885 2646 c-85 -89 -125 -104 -362 -132 -39 -5 -127 -55 -178 -101
-34 -31 -85 -93 -85 -104 0 -5 28 6 63 25 60 34 66 35 175 37 153 2 217 25
301 107 56 56 155 202 144 213 -4 4 -31 -16 -58 -45z m-95 -124 c0 -14 -36
-43 -43 -35 -4 3 -7 1 -7 -5 0 -7 -6 -12 -14 -12 -8 0 -16 -7 -20 -15 -3 -8
-12 -15 -21 -15 -8 0 -15 -4 -15 -8 0 -4 -9 -9 -20 -10 -11 -1 -26 -2 -32 -3
-7 -1 -20 1 -28 3 -8 3 -12 3 -7 1 4 -3 7 -9 7 -14 0 -15 -47 -10 -60 6 -9 11
-16 12 -20 5 -9 -15 -102 -21 -97 -6 2 6 12 11 23 11 12 0 19 7 19 20 0 21 55
42 135 50 25 2 70 7 100 10 30 3 59 10 64 15 12 12 36 13 36 2z"/>
<path d="M886 2675 c6 -15 3 -17 -19 -13 -34 7 -48 -26 -22 -51 10 -9 15 -10
11 -3 -4 7 -1 12 8 12 9 0 16 -4 16 -10 0 -5 4 -10 9 -10 4 0 6 11 3 25 -3 18
0 24 9 22 8 -2 11 -2 6 0 -4 3 -5 8 -2 13 3 4 -2 13 -10 20 -13 11 -14 10 -9
-5z"/>
<path d="M648 2624 c3 -19 1 -25 -7 -20 -6 4 -14 0 -17 -9 -5 -12 -15 -15 -38
-10 -29 5 -30 4 -7 -7 41 -21 104 33 73 64 -6 6 -8 0 -4 -18z"/>
<path d="M610 2621 c-12 -24 -13 -34 -1 -27 9 6 22 46 15 46 -2 0 -8 -9 -14
-19z"/>
<path d="M2087 2612 c-30 -19 -35 -46 -11 -60 14 -8 8 -16 -35 -48 -29 -22
-57 -38 -63 -36 -5 1 -7 -2 -3 -7 11 -18 115 51 148 99 34 50 13 81 -36 52z
m33 -32 c0 -5 -12 -10 -26 -10 -14 0 -23 4 -19 10 3 6 15 10 26 10 10 0 19 -4
19 -10z"/>
<path d="M2271 2623 c4 -26 -2 -43 -13 -37 -7 4 -10 4 -6 -1 4 -4 -2 -16 -13
-26 -19 -17 -20 -19 -5 -25 10 -4 16 -15 14 -28 -2 -17 2 -21 22 -21 19 0 26
6 28 25 4 25 3 25 -12 5 -16 -19 -16 -19 -14 10 2 22 9 31 26 33 12 2 22 8 22
13 0 12 -7 11 -31 -1 -19 -11 -29 3 -10 14 16 10 20 46 5 46 -8 0 -13 -3 -13
-7z"/>
<path d="M683 2575 c-6 -14 -9 -25 -6 -25 7 0 32 33 33 43 0 16 -16 5 -27 -18z"/>
<path d="M1156 2563 c-4 -22 -14 -49 -22 -60 -13 -17 -14 -17 -8 2 4 12 -10 2
-35 -25 -24 -25 -40 -39 -36 -32 11 21 -40 14 -61 -9 -19 -22 -19 -22 4 -10
17 9 31 10 54 2 17 -6 34 -9 36 -6 3 3 0 5 -7 5 -8 0 -5 11 9 30 12 16 27 27
34 24 16 -6 50 74 44 102 -3 11 -7 2 -12 -23z"/>
<path d="M555 2561 c7 -12 48 -35 81 -45 14 -4 23 -2 27 7 4 10 -3 14 -23 15
-16 0 -43 8 -60 17 -18 9 -29 12 -25 6z"/>
<path d="M890 2560 c-8 -5 -23 -11 -33 -14 -16 -5 -17 -8 -2 -35 8 -16 20 -33
27 -37 6 -4 4 3 -5 17 -23 32 -22 53 3 46 10 -3 19 -2 18 2 -2 18 4 22 17 11
13 -11 14 -10 9 4 -7 18 -12 19 -34 6z"/>
<path d="M2496 2509 c3 -6 1 -21 -6 -34 -17 -32 -5 -73 26 -87 32 -15 54 2 34
27 -10 12 -16 13 -27 3 -11 -9 -16 -9 -24 3 -12 19 -11 36 3 45 7 4 8 3 4 -4
-4 -7 -3 -12 3 -12 15 0 23 18 10 25 -5 4 -8 13 -5 20 2 7 -2 16 -10 19 -9 4
-12 2 -8 -5z"/>
<path d="M895 2470 c0 -22 1 -40 3 -40 1 0 7 12 13 27 7 20 6 30 -3 39 -11 11
-13 6 -13 -26z"/>
<path d="M489 2481 c12 -8 12 -12 2 -25 -18 -21 -7 -21 14 0 13 14 14 19 3 25
-7 5 -17 9 -23 9 -5 0 -4 -4 4 -9z"/>
<path d="M731 2448 c0 -7 4 -22 9 -33 8 -18 9 -17 9 8 1 32 16 35 31 7 13 -24
30 -18 30 11 0 16 -7 19 -40 19 -26 0 -40 -4 -39 -12z"/>
<path d="M421 2443 c-1 -6 6 -18 14 -26 8 -8 11 -17 8 -21 -12 -11 -21 -6 -26
15 -4 14 -10 18 -18 13 -10 -6 -10 -9 -1 -12 18 -6 15 -20 -5 -25 -14 -4 -12
-5 5 -6 14 -1 22 -7 22 -18 0 -14 -2 -15 -9 -4 -5 8 -11 9 -15 3 -3 -5 2 -13
11 -16 15 -6 32 8 33 27 0 5 4 6 10 2 6 -4 6 -15 0 -30 -6 -16 -6 -25 0 -25 6
0 10 9 10 20 0 11 5 20 11 20 8 0 7 5 -1 15 -10 13 -9 19 6 37 19 21 19 21 -2
10 -18 -10 -24 -8 -37 11 -9 12 -16 17 -16 10z"/>
<path d="M525 2430 c-11 -5 -15 -9 -8 -9 21 -2 27 -43 8 -57 -17 -13 -17 -14
1 -20 10 -3 33 -12 51 -20 38 -17 46 -18 37 -3 -3 6 -23 18 -42 26 -35 14 -35
16 -17 29 40 29 55 44 55 56 0 7 -7 2 -16 -10 -8 -12 -23 -22 -32 -22 -15 0
-15 2 -2 10 13 9 13 10 0 11 -8 0 -4 5 10 9 l25 8 -25 0 c-14 0 -34 -3 -45 -8z"/>
<path d="M662 2393 c1 -4 -3 -18 -10 -30 -12 -22 -11 -23 18 -23 16 0 30 5 30
10 0 6 -4 10 -10 10 -5 0 -10 6 -10 14 0 8 -5 18 -10 21 -6 4 -9 3 -8 -2z"/>
<path d="M1970 2310 c-31 -61 -50 -76 -50 -41 0 24 -57 70 -91 73 -21 3 -30
-8 -67 -80 -43 -82 -46 -102 -15 -102 9 0 31 -11 49 -25 18 -14 37 -25 42 -25
5 0 25 20 43 45 19 24 38 45 43 45 5 0 33 -16 62 -35 29 -19 55 -35 58 -35 3
0 21 21 41 46 37 50 46 103 22 135 -15 20 -77 59 -94 59 -7 0 -26 -27 -43 -60z
m119 -27 c15 -33 16 -32 -29 -39 -26 -4 -48 -16 -61 -32 -21 -27 -32 -23 -43
14 -5 16 0 27 19 42 14 11 25 29 25 39 0 11 3 22 6 26 11 11 72 -26 83 -50z
m-224 11 c33 -22 31 -31 -7 -39 -46 -10 -48 -13 -39 -38 6 -15 4 -26 -5 -35
-21 -19 -27 -14 -21 15 l5 28 -19 -24 c-27 -34 -24 -5 8 56 28 57 40 62 78 37z
m35 -59 c8 -9 9 -15 2 -15 -6 0 -14 5 -17 10 -4 6 -11 7 -17 4 -7 -4 -8 -2 -4
4 10 16 21 15 36 -3z m158 -29 c-10 -7 -15 -16 -11 -19 3 -4 1 -7 -6 -7 -17 0
-9 34 9 41 22 10 27 -1 8 -15z m-178 9 c0 -12 -24 -55 -31 -55 -13 0 -18 16
-12 38 3 13 13 22 24 22 11 0 19 -2 19 -5z"/>
<path d="M2455 2350 c2 -14 5 -30 5 -37 0 -7 6 -10 14 -7 8 3 24 0 36 -6 15
-8 26 -8 32 -2 7 7 -4 12 -30 17 -32 5 -43 13 -52 33 -10 26 -10 26 -5 2z"/>
<path d="M350 2353 c0 -6 8 -19 18 -29 9 -10 22 -29 28 -43 11 -25 12 -25 10
12 -1 25 -5 36 -13 32 -7 -2 -19 6 -28 18 -8 12 -15 16 -15 10z"/>
<path d="M888 2343 c6 -2 12 -11 12 -19 0 -8 5 -14 10 -14 7 0 7 6 0 20 -6 11
-16 20 -23 19 -9 0 -9 -2 1 -6z"/>
<path d="M624 2317 c2 -15 13 -25 34 -31 18 -5 32 -13 32 -18 0 -5 5 -6 10 -3
6 3 10 14 9 23 0 9 -3 12 -5 5 -7 -17 -64 4 -58 21 3 8 -2 16 -10 19 -12 5
-15 1 -12 -16z"/>
<path d="M2586 2325 c-6 -17 12 -31 24 -19 5 5 2 14 -5 21 -10 10 -14 9 -19
-2z"/>
<path d="M501 2303 c22 -29 39 -61 40 -80 1 -12 3 -10 8 6 9 33 -18 90 -43 91
-17 0 -17 -2 -5 -17z"/>
<path d="M2670 2292 c0 -5 9 -17 20 -27 19 -17 19 -17 7 9 -12 25 -27 35 -27
18z"/>
<path d="M2611 2272 c-1 -15 4 -22 12 -19 6 2 21 0 32 -6 20 -10 20 -10 0 10
-12 12 -23 16 -26 10 -4 -5 -9 -1 -12 9 -4 16 -5 15 -6 -4z"/>
<path d="M611 2261 c-17 -17 -19 -25 -10 -50 9 -24 37 -45 60 -43 9 1 -2 -62
-14 -76 -5 -7 -7 -16 -3 -19 10 -11 24 16 31 59 5 27 2 46 -11 67 -21 36 -44
49 -37 20 3 -10 12 -19 19 -19 8 0 14 -8 14 -17 -1 -14 -7 -10 -30 14 -17 19
-27 39 -24 48 9 22 47 19 67 -5 10 -12 22 -18 28 -14 7 4 3 11 -9 18 -11 6
-29 17 -41 24 -18 11 -23 10 -40 -7z"/>
<path d="M519 2233 c0 -10 -2 -28 -5 -40 -2 -12 1 -25 6 -28 6 -4 10 12 10 39
0 43 -9 67 -11 29z"/>
<path d="M382 2226 c-12 -6 -20 -17 -17 -23 2 -7 0 -13 -5 -13 -6 0 -11 8 -11
18 -1 9 -4 4 -8 -13 -3 -17 -17 -35 -31 -43 l-25 -14 31 6 c17 3 36 0 43 -7 8
-8 11 -8 11 0 0 6 -7 14 -16 17 -8 3 -12 11 -9 16 5 8 11 7 20 0 15 -12 35 -6
35 11 0 6 -4 8 -9 5 -11 -7 -8 21 4 31 4 4 5 2 1 -4 -4 -7 -3 -13 3 -13 5 0
12 -8 14 -17 4 -14 5 -13 6 4 0 12 -4 25 -9 28 -6 4 -8 11 -5 16 7 10 8 10
-23 -5z"/>
<path d="M1511 2193 c-8 -27 -20 -60 -28 -76 -7 -15 -18 -48 -23 -75 -5 -26
-11 -56 -14 -67 -2 -11 -7 -54 -11 -95 -14 -152 -16 -165 -20 -190 -2 -14 -9
-56 -15 -94 -6 -38 -17 -81 -26 -97 -19 -37 -6 -36 24 1 62 79 112 281 126
510 4 52 9 116 12 141 9 76 9 82 -1 86 -6 2 -17 -18 -24 -44z m-31 -250 c-8
-14 -10 -4 -6 42 7 77 9 81 13 23 2 -26 -1 -56 -7 -65z m-7 -95 c-5 -72 -8
-86 -18 -77 -7 8 7 149 16 149 4 0 5 -33 2 -72z"/>
<path d="M2722 2205 c9 -10 21 -16 28 -13 7 2 -1 10 -16 17 -27 12 -28 11 -12
-4z"/>
<path d="M1325 2200 c-3 -5 -3 -20 1 -32 4 -12 8 -40 9 -63 1 -22 0 -32 -2
-22 -4 14 -8 16 -19 6 -10 -8 -14 -8 -14 0 0 6 5 11 10 11 6 0 10 5 10 11 0 8
-5 7 -15 -1 -9 -7 -13 -21 -10 -31 7 -20 -4 -25 -20 -10 -17 15 -52 -6 -59
-35 -6 -21 -3 -32 10 -41 16 -11 16 -13 1 -19 -9 -3 -15 -10 -12 -15 3 -4 15
-1 26 9 l20 17 -21 17 c-11 9 -20 19 -20 23 0 4 7 2 15 -5 13 -10 19 -10 35 5
11 10 20 14 21 9 0 -5 4 1 9 14 6 14 17 22 27 20 15 -2 18 5 20 42 1 25 4 53
6 62 6 21 -18 45 -28 28z m-56 -165 c-13 -13 -16 -12 -27 5 -7 12 -8 20 -2 20
5 0 10 -4 10 -10 0 -5 4 -10 10 -10 5 0 7 8 3 18 -5 14 -3 15 8 4 11 -10 11
-15 -2 -27z"/>
<path d="M542 2161 c-12 -34 -13 -34 -67 -17 -15 5 -15 4 3 -5 26 -14 28 -25
6 -33 -23 -9 -34 1 -34 31 0 38 -14 18 -17 -24 -2 -33 -1 -35 24 -28 28 7 82
41 95 60 5 6 8 4 8 -6 0 -17 25 -42 53 -52 28 -10 19 7 -14 26 -20 11 -29 22
-25 32 3 8 1 15 -4 15 -5 0 -10 8 -12 18 -3 12 -7 7 -16 -17z"/>
<path d="M234 2163 c2 -9 8 -18 15 -19 6 -1 7 0 2 2 -6 3 -7 12 -4 20 3 8 1
14 -5 14 -6 0 -9 -8 -8 -17z"/>
<path d="M985 2169 c-33 -16 -90 -109 -67 -109 6 0 14 9 17 20 11 36 45 61 67
49 19 -10 18 -12 -7 -45 -15 -20 -24 -38 -21 -41 3 -4 13 2 21 13 62 78 56
145 -10 113z"/>
<path d="M1198 2158 c-2 -14 -10 -23 -19 -22 -13 1 -15 -7 -12 -40 6 -67 -18
-88 -103 -90 -38 -1 -79 -8 -91 -14 -25 -14 -73 -6 -73 11 0 5 -8 2 -19 -7
-10 -9 -24 -16 -31 -14 -9 2 -14 -8 -14 -27 -1 -16 -7 -30 -13 -31 -7 -1 -16
-2 -20 -3 -5 0 -8 -19 -8 -40 -1 -32 4 -42 23 -50 30 -14 30 -14 34 11 2 13
16 29 33 38 17 8 33 19 36 24 4 4 9 2 13 -5 3 -8 3 -3 0 11 -3 14 -13 32 -20
40 -13 13 -17 11 -38 -14 l-23 -30 5 32 c2 18 9 32 16 33 6 1 37 1 68 1 35 0
61 5 68 13 11 14 53 9 45 -5 -3 -5 -1 -11 5 -15 18 -11 12 -35 -7 -29 -15 5
-16 4 -3 -5 12 -8 12 -11 1 -11 -11 0 -11 -3 -1 -15 8 -10 9 -15 2 -15 -6 0
-15 8 -21 17 -5 10 -13 15 -17 10 -4 -4 1 -15 10 -26 10 -10 13 -22 8 -25 -5
-3 -17 3 -27 14 -10 11 -28 20 -39 20 -19 0 -19 -1 4 -13 13 -7 29 -22 35 -34
l11 -21 23 24 c13 13 29 24 36 24 7 0 17 12 22 27 8 23 5 31 -15 48 l-24 21
40 12 c22 7 45 19 52 27 11 13 14 13 26 -2 13 -17 14 -17 7 1 -4 11 -2 17 3
13 5 -3 10 3 10 14 0 10 -3 19 -6 19 -3 0 -6 9 -6 19 0 11 4 17 8 15 4 -3 8
-1 8 3 0 5 7 18 16 29 15 19 15 18 11 -3 -3 -15 0 -23 8 -23 8 0 11 8 8 20 -4
16 0 20 19 20 13 0 33 7 44 15 23 18 11 20 -16 3 -16 -10 -25 -9 -49 5 -37 22
-39 22 -43 -5z m-306 -253 c-34 -29 -37 -26 -15 13 13 22 21 28 30 20 9 -7 6
-15 -15 -33z m191 6 c-4 -16 -8 -19 -14 -10 -4 7 -3 19 3 26 14 18 19 12 11
-16z m-242 -33 c-14 -38 -27 -41 -29 -6 -3 31 16 54 31 39 4 -4 3 -19 -2 -33z"/>
<path d="M1370 2168 c0 -4 4 -8 9 -8 5 0 12 -7 15 -16 4 -11 2 -15 -7 -11 -10
4 -12 -3 -9 -24 2 -16 -1 -35 -7 -43 -6 -7 -9 -21 -5 -30 4 -10 1 -16 -8 -16
-19 0 -68 -58 -62 -74 3 -8 1 -17 -5 -20 -5 -4 -12 2 -15 12 -8 25 -35 25 -28
0 2 -10 11 -18 18 -18 13 0 15 -6 13 -27 -2 -18 37 -19 54 -2 16 18 17 21 3
35 -19 18 -19 24 -6 59 8 22 15 26 34 21 21 -5 23 -3 18 16 -3 14 1 26 14 36
13 10 15 16 7 19 -19 7 -16 31 6 45 16 10 17 13 5 26 -8 7 -12 17 -9 22 3 5
-4 8 -15 7 -11 -1 -20 -5 -20 -9z m-50 -251 c0 -8 -7 -14 -15 -14 -16 0 -19 9
-8 20 11 11 23 8 23 -6z"/>
<path d="M2662 2153 c-31 -39 -27 -51 4 -13 15 17 24 33 22 35 -2 3 -14 -7
-26 -22z"/>
<path d="M2540 2143 c-24 -12 -24 -13 -3 -13 12 0 25 5 28 11 11 16 2 17 -25
2z"/>
<path d="M200 2105 c0 -18 19 -40 26 -32 4 4 0 15 -9 24 -9 10 -17 13 -17 8z"/>
<path d="M270 2091 c0 -5 7 -12 16 -15 25 -9 14 -60 -13 -64 -16 -2 -23 2 -23
14 0 10 -3 14 -7 11 -3 -4 -12 -2 -20 4 -7 6 -13 8 -12 3 1 -17 60 -57 69 -48
5 5 27 8 49 6 l40 -4 -20 -27 c-11 -15 -21 -35 -23 -43 -1 -9 -8 -23 -15 -32
-12 -14 -12 -16 3 -10 9 3 16 10 16 14 0 5 9 7 21 5 19 -4 20 -3 6 18 -12 19
-12 26 -2 40 15 21 25 22 25 3 0 -8 4 -18 10 -21 7 -4 7 2 1 18 -10 25 -6 37
11 37 5 0 6 -6 2 -12 -4 -7 -3 -10 1 -5 16 14 16 47 0 47 -8 0 -15 5 -15 10 0
6 -5 10 -12 10 -6 0 -4 -8 6 -19 21 -24 5 -31 -41 -19 -24 6 -33 14 -33 29 0
25 -17 59 -30 59 -6 0 -10 -4 -10 -9z"/>
<path d="M507 2075 c-3 -7 -23 -23 -43 -33 -24 -12 -32 -21 -23 -24 8 -3 26 4
39 16 35 31 54 56 42 56 -5 0 -12 -7 -15 -15z"/>
<path d="M2184 2081 c7 -10 -23 -25 -43 -22 -9 2 -12 -3 -8 -13 4 -11 1 -16
-10 -16 -12 0 -14 -7 -9 -31 6 -33 -9 -73 -25 -64 -5 4 -9 2 -9 -4 0 -5 5 -13
10 -16 14 -9 12 -52 -2 -58 -10 -4 -9 -8 2 -16 12 -8 13 -14 3 -30 -10 -16 -9
-22 11 -35 13 -8 33 -12 45 -9 15 4 21 1 21 -11 0 -9 5 -16 11 -16 6 0 8 9 4
20 -4 12 -2 20 5 20 7 0 8 6 0 19 -5 11 -10 31 -10 45 0 14 -4 26 -9 26 -5 0
-7 -10 -3 -22 4 -18 2 -20 -16 -16 -17 5 -22 0 -27 -23 -9 -42 -21 -28 -17 20
2 24 8 38 14 35 9 -6 6 12 -9 52 -2 7 0 15 6 19 6 3 11 17 11 31 0 30 13 31
33 2 13 -19 16 -20 16 -6 1 9 -10 25 -24 36 l-24 19 24 13 c14 7 25 17 25 22
0 4 5 8 11 8 5 0 7 -4 4 -10 -3 -5 2 -24 11 -42 13 -25 14 -36 4 -51 -9 -15
-9 -17 1 -12 8 5 10 4 5 -3 -4 -6 -13 -9 -20 -6 -7 3 -19 -3 -27 -12 -13 -16
-15 -15 -20 12 l-7 29 -1 -33 c-1 -30 1 -32 24 -26 14 3 25 2 26 -2 1 -5 2
-30 3 -57 2 -26 6 -50 9 -54 4 -3 2 -12 -4 -20 -7 -8 -8 -13 -1 -13 5 0 13 7
16 15 5 13 9 14 28 3 13 -6 36 -12 53 -12 44 -1 46 -31 3 -50 l-33 -15 34 5
c46 6 53 12 49 37 -4 33 -37 60 -55 45 -10 -8 -20 -8 -41 3 -15 8 -30 18 -34
24 -5 7 -5 64 1 106 1 4 10 9 21 12 27 7 30 80 3 75 -14 -2 -18 4 -18 32 0 23
-4 34 -13 33 -6 -2 -12 2 -12 7 0 6 -5 10 -11 10 -5 0 -8 -4 -5 -9z m59 -111
c3 -12 0 -20 -8 -20 -8 0 -11 8 -8 20 3 11 7 20 8 20 1 0 5 -9 8 -20z"/>
<path d="M2537 2046 c4 -30 1 -47 -9 -57 -8 -7 -13 -22 -10 -32 3 -14 7 -15
13 -6 6 10 11 10 24 -1 14 -12 18 -12 25 0 5 9 5 19 -1 26 -10 13 3 28 15 17
10 -10 7 -68 -5 -80 -7 -7 0 -10 23 -8 40 2 68 13 68 28 0 6 -2 8 -5 5 -8 -8
-79 63 -110 110 -15 23 -29 42 -30 42 -1 0 0 -20 2 -44z m27 -85 c-2 -2 -4 1
-4 7 0 6 -6 9 -14 6 -11 -4 -11 1 -2 31 l11 36 6 -38 c4 -21 5 -40 3 -42z m80
-44 c-18 -10 -27 -4 -30 20 -5 30 9 36 27 12 16 -21 16 -25 3 -32z"/>
<path d="M1822 1978 c-11 -13 -36 -56 -56 -97 -27 -56 -33 -78 -25 -92 21 -41
72 -46 111 -12 13 12 20 12 37 1 52 -32 34 -81 -48 -128 -33 -19 -88 -50 -121
-69 -79 -45 -170 -134 -259 -253 -81 -110 -142 -168 -283 -271 -156 -113 -124
-111 60 5 52 32 97 56 102 53 11 -6 24 6 85 86 109 138 170 193 278 250 183
97 290 236 290 378 0 76 -18 119 -62 150 -38 28 -82 27 -109 -1z m100 -35 c43
-47 63 -133 32 -133 -14 0 -14 -3 -4 -15 26 -31 -22 -15 -55 18 l-33 33 -13
-22 c-6 -13 -17 -20 -26 -17 -7 3 -13 1 -11 -5 3 -10 -1 -12 -21 -12 -5 0 -11
15 -13 34 -2 23 0 32 8 29 6 -2 14 3 18 12 3 9 2 13 -4 10 -5 -3 -7 1 -4 9 3
8 12 12 21 9 13 -5 13 -3 4 16 -10 18 -9 23 11 31 13 5 19 9 15 9 -5 1 -5 6
-2 11 12 19 51 10 77 -17z m-69 -347 c-10 -14 -29 -27 -41 -31 -16 -4 -22 -11
-18 -20 3 -8 2 -15 -2 -16 -27 -3 -46 -9 -51 -17 -8 -12 -44 -24 -36 -12 3 6
-1 7 -9 4 -9 -3 -16 -11 -16 -18 0 -6 -12 -17 -27 -23 -33 -15 -43 -16 -43 -5
0 4 3 7 8 7 4 0 21 14 38 30 30 30 66 58 110 85 21 13 26 13 33 1 7 -11 10
-11 17 1 8 12 41 37 52 38 2 0 -5 -11 -15 -24z"/>
<path d="M153 1974 c-6 -15 13 -44 28 -44 5 0 14 12 19 26 6 14 14 22 20 19 5
-3 10 -2 10 2 0 16 -71 12 -77 -3z"/>
<path d="M1129 1983 c-1 -5 -1 -16 0 -25 1 -9 -5 -30 -13 -46 -13 -25 -13 -32
-1 -48 13 -18 14 -17 10 7 -5 27 29 79 52 79 7 0 15 5 19 12 4 6 3 8 -3 5 -6
-4 -16 0 -23 8 -13 16 -39 20 -41 8z"/>
<path d="M1021 1973 c3 -20 -3 -23 -23 -12 -23 12 -23 12 -4 -9 18 -21 20 -21
32 -4 16 21 17 32 4 32 -5 0 -9 -3 -9 -7z"/>
<path d="M2434 1965 c-14 -36 51 -87 92 -71 14 5 14 8 0 21 -16 17 -30 20 -21
6 10 -16 -11 -21 -31 -7 -15 11 -16 17 -6 29 9 10 10 17 2 22 -5 3 -10 -1 -10
-10 0 -9 -5 -13 -11 -10 -6 4 -8 13 -5 21 3 8 3 14 0 14 -2 0 -7 -7 -10 -15z"/>
<path d="M232 1906 c-1 -43 1 -48 18 -43 11 3 18 2 15 -3 -3 -4 2 -13 10 -20
14 -11 14 -10 5 14 -13 35 -13 39 3 31 6 -4 0 4 -14 18 -14 13 -28 30 -31 38
-3 8 -6 -8 -6 -35z"/>
<path d="M2850 1895 c-8 -2 -32 -6 -52 -10 -21 -3 -51 -17 -67 -31 l-30 -25
-38 21 c-50 26 -99 26 -113 0 -8 -16 -20 -20 -46 -18 -18 1 -34 6 -34 10 0 4
-9 8 -20 8 -13 0 -20 7 -20 20 0 11 -4 20 -9 20 -6 0 -8 -9 -6 -20 2 -11 -1
-20 -7 -20 -7 0 -6 -5 2 -15 7 -8 17 -12 22 -9 12 8 60 -5 54 -14 -3 -5 10 -8
28 -9 26 -1 36 4 44 22 9 20 18 24 56 22 24 -1 42 -5 40 -9 -3 -4 6 -13 20
-19 14 -7 23 -16 20 -20 -3 -5 0 -9 6 -9 6 0 9 -4 5 -9 -3 -5 -2 -12 3 -15 4
-2 9 -18 10 -35 2 -25 -3 -34 -20 -41 -13 -5 -17 -9 -10 -9 8 -1 4 -10 -10
-25 -13 -13 -26 -21 -30 -19 -5 2 -8 -3 -8 -11 0 -9 5 -16 11 -16 6 0 3 -7 -5
-16 -22 -22 -20 -31 9 -38 14 -4 23 -11 20 -15 -3 -5 0 -11 5 -13 6 -2 12 -13
12 -24 1 -12 7 -21 13 -21 5 1 30 -3 53 -8 56 -10 71 -40 36 -72 -17 -15 -34
-21 -63 -20 -23 1 -42 5 -42 10 -1 4 -2 13 -3 19 -1 15 -36 24 -36 10 0 -6 5
-12 11 -14 5 -2 11 -12 13 -23 2 -13 11 -20 29 -20 15 -1 27 3 27 9 0 7 3 7 8
1 7 -9 19 -14 49 -19 25 -4 63 -46 64 -71 1 -14 2 -35 3 -47 3 -32 -14 -68
-32 -68 -10 0 -13 -7 -8 -22 3 -13 6 -33 6 -46 0 -14 4 -21 11 -16 6 3 8 17 5
30 -4 14 1 35 14 56 13 22 20 51 20 87 0 47 -4 57 -35 88 -28 28 -33 38 -24
49 15 18 47 9 69 -19 12 -14 19 -17 24 -9 4 7 1 12 -10 12 -12 0 -15 6 -12 24
4 21 1 23 -26 22 -26 -1 -32 3 -34 23 -5 30 20 51 51 44 17 -4 15 0 -9 15 -18
11 -34 26 -37 34 -4 7 -4 1 -1 -13 3 -16 1 -30 -7 -35 -16 -10 -59 -12 -53 -2
2 3 -1 10 -7 14 -8 4 -9 3 -5 -4 4 -7 3 -12 -2 -12 -15 0 -22 54 -9 63 8 6 7
7 -3 4 -10 -3 -14 -15 -13 -33 l2 -29 -29 35 c-16 19 -30 39 -30 43 0 5 -5 5
-10 2 -23 -14 20 61 58 100 15 17 16 76 0 111 -11 24 -10 28 17 50 17 13 44
24 60 25 26 0 28 2 10 10 -15 7 -10 8 22 6 27 -2 44 2 47 10 5 13 4 13 -24 8z"/>
<path d="M1170 1782 c-30 -93 -35 -125 -40 -247 -6 -126 -9 -145 -34 -194 -53
-102 -189 -204 -312 -231 -51 -12 -152 -15 -192 -6 -40 9 -110 55 -136 89 -62
83 -59 181 14 357 27 68 50 125 50 127 0 15 -23 -16 -54 -71 -128 -229 -159
-485 -72 -599 117 -154 351 -139 540 34 78 72 110 115 169 229 67 128 95 227
102 361 3 63 8 147 11 187 2 39 1 72 -3 72 -4 0 -24 -49 -43 -108z m3 -132 c3
-11 1 -23 -4 -26 -5 -3 -9 6 -9 20 0 31 6 34 13 6z m-769 -422 c8 -35 48 -81
101 -118 60 -41 169 -54 270 -30 64 15 169 61 219 96 33 23 40 16 15 -13 -65
-73 -128 -135 -141 -136 -7 -2 -24 -13 -37 -26 -12 -12 -28 -20 -36 -18 -7 3
-23 -4 -35 -15 -18 -16 -26 -18 -45 -10 -19 9 -24 7 -35 -13 -14 -26 -45 -23
-36 4 5 13 3 12 -8 -2 -8 -10 -17 -14 -20 -9 -3 5 -24 7 -46 5 -25 -3 -40 0
-40 7 0 6 -10 10 -22 8 -14 -2 -22 2 -21 9 2 7 0 12 -5 11 -11 -4 -60 32 -66
48 -3 9 -1 25 5 37 10 21 10 21 -5 3 -20 -25 -27 -17 -32 36 -2 24 -6 64 -10
90 -4 33 -2 51 8 61 7 8 14 12 15 9 1 -4 4 -19 7 -34z"/>
<path d="M463 1099 c3 -9 1 -21 -5 -27 -15 -15 -17 -62 -2 -62 24 0 30 79 8
99 -4 3 -5 -1 -1 -10z"/>
<path d="M315 1872 c-14 -3 -8 -8 24 -19 45 -15 64 -11 41 10 -10 9 -11 9 -6
0 9 -17 -3 -16 -23 0 -9 8 -25 12 -36 9z"/>
<path d="M2830 1862 c0 -5 18 -19 41 -31 40 -23 41 -23 30 -2 -17 30 -71 56
-71 33z"/>
<path d="M2839 1829 c5 -6 7 -19 4 -28 -5 -13 -3 -14 8 -3 11 10 10 15 -4 27
-9 8 -13 10 -8 4z"/>
<path d="M156 1804 c-9 -23 -7 -36 3 -29 5 3 13 0 16 -6 5 -7 0 -10 -11 -7
-12 2 -19 12 -18 26 0 17 -5 22 -25 21 -17 -1 -20 -3 -8 -6 9 -2 17 -11 17
-18 0 -7 6 -20 13 -27 7 -7 18 -24 24 -38 l12 -25 -5 28 c-4 15 -2 27 3 27 6
0 10 16 11 35 1 37 -20 50 -32 19z"/>
<path d="M2736 1775 c4 -16 11 -34 16 -40 7 -7 8 -1 3 15 -12 40 -26 59 -19
25z"/>
<path d="M2850 1760 c-7 -4 -8 -9 -2 -11 5 -2 13 -15 17 -27 6 -21 4 -23 -17
-18 -13 3 -9 -1 10 -9 19 -9 32 -22 32 -34 0 -10 9 -21 20 -24 23 -6 27 8 5
17 -8 3 -15 12 -15 21 0 8 -5 15 -11 15 -6 0 -9 7 -6 15 4 8 1 17 -5 21 -6 4
-7 9 0 13 6 4 5 10 -3 18 -6 6 -18 8 -25 3z"/>
<path d="M2519 1711 c-105 -69 -200 -169 -202 -211 -2 -29 1 -33 28 -37 l30
-4 -25 25 -24 26 38 39 c21 22 64 56 95 77 31 20 68 45 83 55 15 11 32 19 37
19 11 0 31 32 31 49 0 19 -15 12 -91 -38z"/>
<path d="M2800 1736 c0 -9 5 -16 11 -16 5 0 7 6 3 13 -5 7 0 6 11 -3 16 -13
18 -13 13 0 -7 21 -38 25 -38 6z"/>
<path d="M2193 1726 c-13 -6 -25 -17 -28 -25 -9 -22 10 -34 25 -16 10 12 10
15 -1 15 -7 0 -3 7 10 16 19 14 25 14 32 3 7 -12 9 -11 9 1 0 13 1 13 10 0 8
-13 10 -12 10 3 0 19 -31 21 -67 3z"/>
<path d="M1634 1719 c3 -15 46 -32 46 -19 0 6 -9 10 -19 10 -11 0 -22 5 -24
10 -3 6 -4 5 -3 -1z"/>
<path d="M1055 1690 c10 -11 22 -20 26 -20 5 0 1 9 -8 20 -10 11 -22 20 -27
20 -5 0 -1 -9 9 -20z"/>
<path d="M2093 1703 c-27 -5 -31 -23 -5 -23 10 0 23 -5 28 -10 7 -7 14 -2 22
17 11 26 11 27 -3 9 -13 -18 -20 -15 -16 7 0 4 0 6 -1 6 -2 -1 -13 -4 -25 -6z"/>
<path d="M742 1615 c-23 -47 -42 -87 -42 -90 0 -3 16 -11 35 -19 19 -8 45 -27
58 -41 l22 -26 42 38 c46 43 58 76 49 128 -7 37 -51 79 -96 90 -23 5 -28 0
-68 -80z m111 28 c4 -2 7 -11 7 -19 0 -8 5 -14 11 -14 7 0 9 -14 5 -37 -3 -21
-5 -40 -6 -42 0 -2 -6 -1 -14 2 -10 4 -16 -2 -18 -16 -4 -32 -32 -28 -36 6 -2
19 1 28 10 26 27 -3 36 1 41 21 8 29 -39 26 -86 -5 -42 -29 -46 -26 -17 15 11
15 24 39 30 54 8 23 14 25 37 20 16 -4 31 -9 36 -11z"/>
<path d="M2240 1693 c-20 -8 -30 -24 -30 -49 0 -26 -15 -33 -58 -26 -32 4 -32
5 -16 23 28 31 10 31 -27 -1 -41 -35 -56 -38 -35 -8 22 30 20 41 -3 26 -11 -7
-17 -16 -15 -20 3 -4 0 -8 -7 -8 -10 0 -10 -3 -1 -12 7 -7 12 -21 12 -32 0
-19 1 -19 23 2 29 28 57 28 91 1 21 -17 26 -18 26 -5 0 9 5 16 10 16 6 0 10
11 10 24 0 35 10 56 26 56 8 0 14 5 14 10 0 6 -1 10 -2 9 -2 0 -10 -3 -18 -6z"/>
<path d="M2764 1671 c1 -16 5 -27 10 -24 5 3 7 0 4 -7 -2 -8 -10 -16 -17 -18
-10 -3 -12 4 -9 27 5 32 -5 42 -16 15 -8 -22 -7 -36 3 -53 8 -12 12 -13 25 -2
29 24 76 23 95 -1 l18 -21 5 21 c4 14 2 20 -5 15 -6 -4 -8 0 -5 9 4 8 2 21 -4
29 -8 11 -9 11 -4 -3 3 -10 1 -20 -4 -23 -6 -4 -10 -1 -10 5 0 7 -6 8 -19 1
-21 -12 -51 13 -51 42 0 9 -4 17 -9 17 -4 0 -8 -13 -7 -29z"/>
<path d="M99 1683 c-1 -5 -1 -12 0 -16 1 -4 -6 -10 -14 -13 -8 -3 -12 -10 -9
-15 3 -5 11 -3 18 3 17 18 27 48 16 48 -6 0 -11 -3 -11 -7z"/>
<path d="M2810 1680 c0 -5 10 -10 23 -10 18 0 19 2 7 10 -19 13 -30 13 -30 0z"/>
<path d="M2840 1581 c0 -7 8 -23 17 -35 l18 -23 10 21 c7 12 20 21 33 20 15 0
19 3 13 9 -7 7 -19 6 -38 -2 -23 -11 -29 -10 -40 5 -8 11 -13 13 -13 5z"/>
<path d="M94 1568 c-4 -7 -3 -10 1 -5 5 4 16 0 26 -9 16 -14 17 -14 15 3 -3
22 -31 29 -42 11z"/>
<path d="M2150 1528 c0 -9 -13 -56 -30 -105 -34 -101 -55 -224 -75 -441 -13
-144 -16 -157 -46 -203 -32 -51 -82 -87 -157 -113 -45 -16 -54 -10 -23 18 57
52 94 199 111 441 6 83 17 172 25 199 8 27 13 51 10 54 -7 7 -35 -19 -35 -33
0 -7 -13 -46 -30 -86 -37 -93 -47 -141 -60 -316 -10 -144 -29 -227 -62 -275
-10 -14 -18 -30 -18 -35 0 -13 88 -63 111 -63 57 0 133 75 168 165 13 33 28
64 32 69 4 5 24 -5 44 -23 30 -26 44 -31 87 -31 50 0 52 1 122 74 76 80 112
101 158 91 25 -6 35 0 82 49 29 31 58 56 64 56 35 0 112 144 112 210 0 44 -19
46 -35 3 -26 -66 -41 -88 -57 -85 -9 1 -20 -9 -27 -26 -7 -16 -25 -43 -41 -61
-23 -24 -35 -30 -54 -25 -26 6 -76 -17 -143 -67 -56 -42 -114 -48 -167 -17
-97 57 -104 117 -55 497 6 50 6 78 -1 85 -7 7 -10 5 -10 -6z m-255 -492 c-5
-65 -12 -106 -21 -116 -12 -13 -14 -8 -9 35 6 50 13 144 14 178 1 10 6 15 12
12 7 -5 8 -40 4 -109z m208 68 c-10 -25 28 -136 49 -142 10 -2 18 -8 18 -12 0
-18 88 -49 132 -46 l46 3 -22 -31 c-27 -41 -66 -82 -66 -71 0 4 -8 1 -18 -8
-22 -20 -60 -18 -91 5 -13 10 -28 15 -34 11 -6 -4 -8 2 -3 18 18 66 19 79 2
79 -13 0 -15 -4 -7 -18 5 -10 6 -24 1 -32 -6 -11 -10 -7 -15 13 -4 15 -14 31
-22 36 -11 6 -12 10 -4 15 6 4 11 2 11 -3 0 -17 17 -13 24 5 3 8 2 13 -2 10
-4 -2 -14 -1 -21 4 -11 6 -11 13 2 39 9 17 13 29 9 27 -4 -2 -6 21 -6 52 2 66
1 62 14 62 5 0 7 -7 3 -16z m551 -18 c-5 -13 -34 -31 -34 -21 0 5 30 35 35 35
3 0 2 -6 -1 -14z m-136 -108 c-2 -13 -9 -22 -17 -20 -8 2 -21 0 -30 -4 -33
-14 -60 -13 -54 2 3 8 11 14 19 14 8 0 14 4 14 9 0 5 12 12 28 14 15 2 31 5
35 6 5 0 7 -9 5 -21z m-548 -309 c-25 -25 -34 -28 -41 -18 -5 8 -9 16 -9 19 0
7 74 39 79 34 2 -2 -11 -18 -29 -35z m-55 -30 c7 -10 -14 -23 -42 -27 -21 -2
-32 16 -18 30 9 8 55 6 60 -3z"/>
<path d="M2896 1490 c-10 -21 -11 -30 -3 -30 7 0 22 -3 33 -6 23 -6 26 12 10
49 -12 25 -22 21 -40 -13z m39 -20 c-5 -8 -11 -8 -17 -2 -6 6 -7 16 -3 22 5 8
11 8 17 2 6 -6 7 -16 3 -22z"/>
<path d="M983 1487 c-22 -10 -38 -35 -28 -45 3 -3 11 3 19 13 18 25 47 13 42
-17 -1 -13 -6 -22 -9 -20 -29 12 -39 13 -52 2 -14 -11 -14 -15 2 -32 26 -29
24 -45 -9 -61 -23 -11 -26 -16 -13 -21 9 -3 27 2 41 11 20 13 24 21 19 43 -6
28 15 57 34 46 5 -3 11 1 15 9 3 8 1 15 -4 15 -6 0 -10 7 -10 15 0 8 5 15 11
15 5 0 7 5 4 10 -4 6 -10 8 -15 5 -5 -3 -12 1 -17 8 -6 11 -14 12 -30 4z m3
-89 c-12 -7 -21 -7 -28 0 -6 6 0 10 18 10 23 0 24 -2 10 -10z"/>
<path d="M2674 1453 c2 -9 9 -19 16 -21 7 -3 10 0 6 7 -4 7 1 11 13 11 28 0
37 -20 12 -27 -12 -3 -21 -9 -21 -14 0 -15 15 -10 38 11 22 21 30 36 13 26 -5
-3 -14 1 -21 9 -18 21 -59 20 -56 -2z"/>
<path d="M631 1432 c-28 -24 -30 -30 -18 -40 12 -10 16 -9 20 8 4 17 10 20 34
14 40 -10 45 -14 33 -29 -8 -10 -8 -19 -1 -34 15 -27 14 -31 -6 -25 -14 5 -15
4 -4 -4 20 -15 3 -33 -25 -26 -26 7 -41 -14 -30 -42 5 -14 9 -13 30 3 14 12
37 18 56 17 23 -2 30 2 26 12 -3 7 3 18 12 24 16 11 16 11 0 6 -12 -3 -15 -1
-11 10 3 8 -4 25 -15 37 -11 13 -18 32 -16 44 3 20 1 22 -28 16 -28 -6 -31 -4
-26 15 8 28 7 28 -31 -6z m102 -98 c-4 -12 -8 -13 -14 -3 -9 15 -2 32 11 24 5
-3 6 -13 3 -21z m-73 -59 c0 -8 -4 -15 -10 -15 -5 0 -10 7 -10 15 0 8 5 15 10
15 6 0 10 -7 10 -15z"/>
<path d="M1829 1446 c16 -19 23 -66 10 -66 -5 0 -8 -11 -7 -23 1 -13 -12 -46
-30 -74 -17 -27 -35 -64 -38 -81 -4 -18 -10 -35 -15 -38 -4 -2 -5 -12 -2 -21
4 -11 3 -14 -5 -9 -8 4 -12 0 -12 -11 0 -10 -3 -14 -8 -8 -4 6 -23 12 -42 14
-44 4 -44 4 -33 38 11 32 63 48 63 19 0 -9 5 -16 11 -16 5 0 7 5 4 10 -4 6 5
23 19 37 14 14 26 30 26 36 0 5 -9 -2 -21 -17 -25 -32 -69 -36 -69 -7 0 11 14
31 31 45 35 30 29 36 -7 7 -14 -11 -34 -17 -47 -14 -20 4 -21 3 -4 -10 16 -14
16 -16 -3 -58 -11 -24 -20 -37 -21 -29 0 8 -5 2 -9 -14 -5 -16 -7 -33 -4 -38
3 -4 2 -8 -3 -8 -14 0 -30 14 -42 37 -9 18 -8 26 6 43 l18 21 7 -23 c6 -17 6
-14 3 10 -2 17 -1 32 3 32 4 0 12 10 17 22 6 12 17 24 25 28 68 31 90 45 90
56 0 7 5 16 11 20 8 5 10 -3 7 -24 -3 -21 0 -33 10 -37 14 -5 14 19 -2 70 -5
15 0 23 21 33 15 6 33 12 41 12 7 0 10 5 7 10 -4 6 -11 8 -16 5 -5 -4 -9 -1
-9 4 0 6 -5 11 -11 11 -6 0 -9 -7 -6 -14 4 -11 1 -13 -10 -9 -11 5 -14 3 -9
-6 6 -9 1 -12 -15 -9 -18 2 -24 -2 -25 -17 -1 -11 -2 -26 -3 -32 -1 -17 -71
-50 -93 -45 -13 2 -18 -3 -18 -17 0 -11 -7 -24 -16 -29 -8 -5 -16 -17 -18 -27
-1 -10 -15 -28 -31 -41 l-28 -22 21 -22 c12 -13 19 -27 16 -32 -3 -4 4 -8 15
-8 11 0 27 -7 35 -16 15 -14 17 -14 22 0 8 22 70 21 78 0 6 -15 9 -15 30 5 12
12 23 27 24 34 6 56 24 104 46 124 14 12 26 31 26 42 0 11 5 23 10 26 15 9 13
48 -2 40 -7 -4 -6 -1 2 7 9 7 15 19 14 26 -1 6 -2 18 -3 25 0 7 -11 18 -23 26
-21 13 -22 13 -9 -3z"/>
<path d="M891 1422 c-7 -13 -14 -22 -17 -19 -3 3 -15 -4 -26 -15 -16 -16 -29
-19 -61 -15 -22 3 -44 11 -48 19 -6 9 -9 10 -9 1 0 -22 41 -36 86 -29 41 5 58
-4 34 -19 -12 -7 -14 -72 -2 -77 4 -2 19 8 33 24 16 16 22 29 15 31 -6 2 -16
-5 -23 -17 -12 -20 -12 -19 -13 10 0 31 30 58 38 35 2 -6 8 -11 13 -11 5 0 4
9 -3 19 -8 13 -16 17 -24 11 -6 -6 -13 -7 -16 -4 -10 9 43 55 54 48 6 -4 8 -2
4 4 -3 5 -1 12 6 14 7 3 3 7 -9 10 -16 4 -24 -1 -32 -20z"/>
<path d="M2911 1418 c-1 -20 4 -28 15 -28 12 0 14 4 7 13 -6 6 -13 19 -16 27
-3 9 -6 3 -6 -12z"/>
<path d="M556 1415 c-4 -13 -10 -14 -26 -5 -12 6 -20 7 -20 1 0 -5 -3 -18 -7
-28 -6 -16 -5 -16 10 -5 9 8 20 11 25 8 12 -7 54 23 47 35 -9 14 -22 11 -29
-6z"/>
<path d="M582 1378 c-9 -9 -7 -17 10 -35 25 -26 38 -29 38 -8 0 9 -6 12 -16 8
-14 -5 -16 -1 -12 20 6 29 -1 34 -20 15z"/>
<path d="M522 1368 c4 -8 2 -21 -2 -28 -5 -8 -3 -19 5 -26 7 -8 11 -22 8 -33
-4 -15 0 -18 20 -14 24 5 43 -13 46 -42 1 -5 7 -10 14 -10 19 -1 38 -15 32
-26 -13 -20 8 -7 35 21 31 33 60 38 102 16 19 -10 29 -11 37 -3 9 9 14 8 20
-2 8 -13 18 -5 17 14 -2 19 -58 85 -68 79 -5 -3 3 -19 19 -36 23 -24 25 -30
13 -38 -8 -6 -22 -7 -30 -3 -38 16 -80 15 -106 -4 -24 -18 -30 -19 -56 -6 -15
8 -28 21 -28 29 0 7 -10 16 -22 19 -26 7 -48 46 -41 74 3 10 -1 22 -8 27 -8 5
-11 3 -7 -8z"/>
<path d="M2290 1353 c0 -7 -9 -13 -20 -13 -18 0 -19 -3 -10 -20 6 -11 17 -20
25 -20 16 0 30 -18 21 -27 -3 -3 -12 0 -21 7 -20 17 -29 7 -31 -35 0 -25 4
-36 17 -40 13 -4 17 -15 14 -42 -2 -33 -20 -57 -36 -47 -4 2 -6 -11 -4 -28 2
-28 6 -32 31 -33 16 0 29 -6 30 -12 3 -26 4 -26 18 -8 8 11 19 16 30 12 17 -7
23 8 7 17 -18 11 -22 75 -7 110 8 19 11 37 8 41 -4 4 0 6 8 5 29 -4 40 0 40
15 0 9 -7 18 -15 22 -19 7 -44 -23 -45 -54 0 -13 -6 -23 -13 -23 -10 0 -13
-13 -11 -49 2 -27 4 -52 6 -57 2 -5 -1 -10 -7 -12 -5 -2 -12 5 -13 15 -2 10
-10 23 -18 30 -10 7 -12 13 -5 18 14 8 14 68 1 81 -6 6 -13 23 -16 38 -4 24
-2 26 21 20 17 -4 25 -2 25 7 0 18 -12 35 -27 40 -9 3 -8 9 2 22 12 17 14 16
43 -8 17 -15 42 -25 60 -25 17 0 33 -6 36 -12 3 -7 3 -3 1 8 -4 13 0 24 8 27
20 7 39 -7 32 -25 -9 -22 11 -65 35 -78 27 -14 31 -11 23 19 -3 13 -11 20 -19
17 -26 -10 -38 30 -17 55 11 13 8 17 -22 28 -30 10 -37 10 -51 -3 -22 -23 -53
-20 -65 7 -8 17 -19 23 -40 23 -17 0 -29 -5 -29 -13z"/>
<path d="M2549 1218 c-1 -7 -1 -16 0 -20 0 -5 -8 -17 -19 -28 -11 -11 -20 -27
-20 -36 0 -12 -5 -14 -17 -9 -10 4 -28 10 -40 12 -30 7 -29 16 3 33 22 12 27
12 34 0 8 -12 10 -10 10 7 0 29 -33 23 -72 -14 -24 -23 -32 -25 -47 -16 -15
10 -20 9 -25 -2 -3 -8 -2 -14 2 -14 28 4 33 -2 18 -23 -25 -36 -18 -46 9 -14
31 36 80 44 98 15 10 -17 13 -17 29 -2 10 9 18 25 18 35 0 11 9 22 19 25 14 4
19 13 19 34 -1 28 -17 42 -19 17z"/>
<path d="M2801 1068 c20 -39 49 -50 49 -20 0 10 5 23 12 30 7 7 8 12 4 12 -4
0 -15 -8 -24 -18 -10 -10 -16 -16 -15 -13 4 7 -18 31 -29 31 -5 0 -3 -10 3
-22z"/>
<path d="M1353 1067 c4 -10 2 -17 -5 -17 -6 0 -9 -3 -5 -6 3 -3 12 -2 20 3 13
7 13 10 -1 23 -14 13 -15 12 -9 -3z"/>
<path d="M924 966 c-3 -9 -13 -16 -21 -16 -11 0 -13 -7 -9 -27 5 -17 3 -29 -6
-35 -10 -6 -10 -10 2 -18 8 -5 22 -9 30 -8 24 2 51 -13 43 -25 -3 -6 -1 -7 5
-3 7 4 12 3 12 -3 0 -5 -5 -11 -12 -13 -7 -3 -6 -7 5 -11 11 -4 17 -1 17 8 0
18 16 20 23 3 3 -7 4 -3 4 10 -1 14 -7 22 -17 20 -27 -5 -90 41 -90 67 0 28
24 39 40 20 7 -9 28 -14 51 -13 34 1 37 3 28 20 -11 20 -20 24 -16 6 5 -25
-36 -20 -59 7 -20 23 -25 25 -30 11z"/>
<path d="M1062 933 c-10 -4 -10 -8 -1 -19 15 -18 28 -18 25 1 -3 19 -8 23 -24
18z"/>
<path d="M998 899 c-29 -16 -21 -32 11 -26 33 7 47 -11 28 -34 -7 -7 -3 -6 9
4 28 23 51 21 59 -4 6 -17 9 -18 16 -8 6 11 9 10 15 -4 3 -9 11 -17 18 -17 6
0 11 -11 11 -25 0 -17 -6 -25 -17 -25 -22 0 -89 -71 -83 -87 2 -7 0 -13 -6
-13 -17 0 -23 32 -9 54 12 19 12 20 -3 7 -15 -11 -18 -10 -27 14 -13 34 -13
55 0 55 6 0 11 -12 11 -27 1 -16 3 -21 6 -12 3 11 11 15 23 12 11 -3 17 -10
13 -17 -3 -6 0 -5 8 2 12 11 11 15 -3 26 -22 16 -23 36 -2 36 8 0 12 5 9 10
-11 18 -24 11 -31 -15 -4 -17 -10 -23 -18 -17 -14 12 -77 12 -70 0 3 -4 0 -8
-5 -8 -6 0 -11 -5 -11 -12 0 -9 3 -9 12 0 22 22 33 12 53 -50 11 -34 27 -69
37 -77 13 -11 14 -18 6 -28 -12 -15 -38 -18 -38 -4 0 5 -8 17 -17 27 -10 10
-16 29 -15 45 2 15 -1 30 -7 33 -6 4 -8 13 -4 21 3 8 1 15 -5 15 -13 0 -23
-28 -11 -32 12 -4 20 -48 8 -48 -18 0 -9 -29 12 -35 13 -5 19 -13 16 -24 -3
-12 5 -20 29 -28 26 -8 34 -7 34 2 0 7 7 18 15 25 11 9 14 22 9 43 -5 24 -1
34 20 52 14 12 23 25 19 29 -6 6 11 10 33 7 6 -1 17 6 24 14 8 10 9 15 2 15
-18 0 -2 29 18 35 20 6 17 36 -3 32 -7 -1 -11 9 -10 26 2 24 -1 27 -15 22 -33
-15 -60 -17 -66 -6 -4 6 -12 11 -17 11 -6 0 -7 -4 -4 -10 11 -18 -15 -11 -37
10 -25 23 -27 23 -50 9z m185 -81 c-2 -4 -10 -5 -18 -2 -8 4 -13 10 -10 14 3
4 -7 11 -23 16 l-27 7 30 6 c24 5 32 2 41 -14 6 -11 9 -23 7 -27z"/>
<path d="M2443 855 c0 -7 9 -13 19 -12 10 1 18 2 18 4 0 1 -8 7 -18 12 -14 7
-19 6 -19 -4z"/>
<path d="M762 796 c-4 -6 -7 -13 -8 -16 -5 -28 -52 -91 -61 -82 -7 6 -23 1
-37 -14 -9 -8 -16 -11 -16 -6 0 5 -6 9 -12 10 -7 1 -24 3 -38 4 -14 2 -31 9
-38 16 -18 17 -29 15 -36 -5 -3 -10 -15 -32 -25 -50 -14 -22 -17 -34 -9 -39 7
-4 8 -3 4 4 -5 8 1 12 17 12 14 0 31 7 38 17 13 15 12 15 -9 4 -13 -7 -26 -10
-29 -8 -7 8 16 47 28 47 6 0 7 -6 3 -12 -6 -10 -5 -10 7 -1 9 8 20 9 29 3 8
-6 25 -10 37 -10 14 0 20 -5 18 -17 -1 -10 0 -12 2 -5 3 8 11 11 18 8 8 -3 16
0 19 7 3 7 5 3 3 -8 -1 -11 -12 -24 -25 -30 -29 -13 -29 -27 1 -16 13 5 27 22
33 42 15 45 39 48 59 9 9 -17 20 -28 26 -24 12 7 -12 -38 -25 -48 -5 -3 -16
-4 -24 0 -11 4 -13 1 -8 -7 5 -7 17 -10 28 -8 12 3 18 1 15 -6 -2 -7 -20 -10
-44 -9 -23 2 -44 -2 -48 -8 -10 -16 14 -40 39 -40 24 0 66 38 66 58 0 7 4 12
9 12 14 0 3 -52 -18 -80 -10 -14 -28 -26 -40 -28 -12 -2 -18 -8 -15 -14 5 -8
-7 -9 -36 -5 -29 4 -39 2 -29 -4 7 -5 25 -9 39 -9 l25 -1 -24 -10 c-13 -5 -21
-12 -17 -16 3 -4 20 3 36 15 16 12 33 22 37 22 16 0 52 66 59 106 5 36 9 40
30 36 18 -3 24 0 24 14 0 15 -2 16 -9 5 -8 -12 -19 -5 -55 35 -50 53 -53 62
-32 70 8 3 12 12 9 20 -8 21 21 17 41 -5 17 -18 16 -20 -3 -26 -12 -3 -26 -3
-32 1 -8 4 -9 3 -5 -4 10 -17 41 -15 56 3 15 18 1 40 -30 50 -24 8 -15 34 9
28 10 -3 25 -16 32 -30 7 -13 26 -31 42 -40 26 -13 31 -13 44 0 13 12 9 15
-27 21 -23 3 -38 11 -35 16 3 6 1 10 -4 10 -6 0 -10 3 -10 8 5 29 -3 39 -31
39 -17 0 -34 -5 -38 -11z m-46 -253 c-15 -4 -16 -7 -5 -14 10 -6 7 -9 -13 -9
-27 0 -43 12 -31 24 3 3 20 5 37 5 20 -1 24 -3 12 -6z"/>
<path d="M1094 798 c-7 -11 13 -28 33 -28 16 0 6 27 -12 34 -8 3 -17 0 -21 -6z"/>
<path d="M2668 710 c-3 -16 -1 -30 4 -30 4 0 8 14 8 30 0 17 -2 30 -4 30 -2 0
-6 -13 -8 -30z"/>
<path d="M1670 721 c0 -5 7 -12 16 -15 8 -3 12 -11 8 -17 -5 -8 -3 -9 5 -5 9
6 8 13 -5 27 -19 21 -24 23 -24 10z"/>
<path d="M2486 615 l-29 -12 27 -5 c14 -3 26 -1 26 4 0 5 5 6 10 3 6 -3 10 -2
10 4 0 17 -14 19 -44 6z"/>
<path d="M536 585 c4 -8 10 -15 15 -15 5 0 6 -12 2 -27 -3 -16 -6 -36 -5 -45
0 -10 -3 -18 -9 -18 -5 0 -9 -5 -9 -11 0 -6 7 -9 15 -5 8 3 14 2 12 -2 -4 -13
44 -53 61 -50 13 3 9 8 -15 21 -18 10 -35 28 -39 41 -8 31 -1 82 10 78 12 -5
26 19 19 31 -3 5 -10 3 -14 -4 -8 -11 -11 -11 -20 4 -12 21 -31 23 -23 2z"/>
<path d="M2489 578 c-9 -35 -5 -57 12 -61 16 -4 18 -3 9 8 -7 8 -9 23 -5 35 4
11 2 20 -4 20 -6 0 -11 -1 -12 -2z"/>
<path d="M2520 554 c0 -14 4 -23 10 -19 6 3 10 15 10 26 0 10 -4 19 -10 19 -5
0 -10 -12 -10 -26z"/>
<path d="M2437 563 c-9 -8 4 -56 17 -65 20 -14 30 -8 11 6 -12 8 -16 20 -12
34 5 22 -5 37 -16 25z"/>
<path d="M420 556 c0 -2 11 -6 25 -8 14 -3 25 -1 25 3 0 5 -11 9 -25 9 -14 0
-25 -2 -25 -4z"/>
<path d="M577 522 c1 -8 3 -18 3 -24 0 -6 6 -8 14 -5 7 3 18 1 23 -4 5 -5 23
-12 39 -14 27 -5 28 -4 10 10 -11 8 -25 15 -32 15 -6 0 -17 7 -24 15 -7 8 -16
13 -20 10 -5 -3 -10 -2 -13 2 -2 5 -2 2 0 -5z"/>
<path d="M2161 511 c-9 -6 -10 -11 -2 -15 6 -4 11 -3 11 3 0 5 8 12 18 14 12
3 13 5 2 6 -8 0 -21 -3 -29 -8z"/>
<path d="M2400 497 c0 -13 -5 -28 -12 -35 -9 -9 -9 -12 0 -12 6 0 16 9 22 19
9 19 13 19 45 5 19 -8 35 -12 35 -9 0 3 -18 13 -41 21 -29 12 -37 19 -27 25
10 7 9 9 -4 9 -12 0 -18 -8 -18 -23z"/>
<path d="M1612 468 c-6 -13 -12 -32 -14 -43 -2 -11 -13 -24 -26 -30 -12 -5
-22 -17 -22 -27 0 -9 -5 -20 -10 -23 -6 -3 -7 -17 -4 -30 8 -33 -4 -68 -22
-61 -14 6 -19 -6 -7 -17 12 -12 43 25 43 52 1 23 2 24 11 8 29 -49 20 -97 -19
-98 -27 -1 -27 -1 -3 -8 l24 -7 -24 -16 c-14 -8 -34 -18 -44 -21 -17 -4 -17
-5 3 -6 15 -1 21 -5 16 -13 -4 -7 -3 -8 5 -4 6 4 9 12 6 17 -4 5 -1 9 6 9 6 0
22 11 35 26 30 31 31 81 4 134 -18 36 -19 40 -4 52 9 7 26 22 39 34 12 11 32
19 44 17 32 -5 38 24 11 53 -29 30 -34 30 -48 2z m52 -39 c-4 -8 -9 -7 -15 2
-5 8 -9 9 -9 3 0 -6 -7 -11 -15 -11 -18 0 -19 11 -4 39 l11 20 19 -21 c11 -12
17 -26 13 -32z"/>
<path d="M1444 465 c-4 -8 -4 -24 -1 -34 4 -16 -1 -19 -34 -19 -21 -1 -43 -4
-49 -7 -5 -3 -10 3 -10 14 0 12 -4 21 -8 21 -12 0 -52 -44 -52 -57 0 -6 -7
-13 -15 -16 -17 -7 -79 -127 -65 -127 5 0 10 7 10 17 0 14 2 14 20 -2 11 -10
20 -22 20 -26 0 -4 -9 -6 -20 -4 -14 3 -20 -2 -20 -16 0 -10 -4 -19 -10 -19
-5 0 -10 5 -10 12 0 6 -3 8 -7 5 -3 -4 -12 -2 -20 5 -11 8 -12 7 -7 -6 3 -9
12 -16 20 -16 8 0 14 -4 14 -10 0 -6 -9 -6 -24 0 -13 5 -27 6 -30 3 -10 -10
-37 19 -32 34 4 8 1 11 -5 7 -6 -3 -9 -19 -7 -35 3 -17 -1 -30 -9 -33 -7 -3
-13 -11 -13 -17 0 -8 7 -6 19 5 24 22 70 26 99 8 21 -13 22 -13 22 10 0 16 9
29 25 38 21 11 25 19 20 41 -6 28 11 44 33 30 9 -5 8 -12 -3 -27 -8 -10 -14
-23 -14 -29 -1 -5 8 1 19 15 11 14 20 30 20 37 0 18 -36 25 -59 11 -11 -7 -23
-9 -26 -6 -11 10 12 43 39 57 14 8 23 18 20 23 -7 11 7 10 26 -2 9 -6 17 -5
22 3 12 18 27 -10 20 -36 -3 -13 -1 -18 6 -13 6 4 11 22 10 41 -1 31 -3 33
-25 24 -32 -12 -40 -11 -46 4 -6 15 20 54 29 44 4 -4 1 -13 -5 -21 -11 -13 -8
-14 21 -6 48 14 85 13 70 -2 -17 -17 -15 -53 3 -68 12 -10 20 -9 39 3 22 15
25 15 31 -1 3 -9 1 -18 -4 -20 -13 -4 -15 -22 -3 -22 5 0 14 12 20 26 10 20 9
28 -2 39 -21 21 -9 49 25 62 19 8 29 18 29 32 0 38 -36 23 -75 -31 -8 -12 -18
-18 -22 -14 -5 5 -2 11 5 13 6 3 12 9 12 14 0 4 -7 6 -16 2 -12 -4 -15 0 -12
18 2 19 9 24 30 24 14 -1 24 3 22 7 -9 14 -54 8 -60 -7z m6 -85 c0 -5 7 -10
15 -10 17 0 18 -2 9 -24 -3 -9 -17 -16 -30 -16 -18 0 -24 5 -24 23 0 13 3 27
7 30 10 10 23 8 23 -3z"/>
<path d="M2246 442 c-9 -14 9 -31 23 -23 7 5 10 14 7 20 -8 13 -23 14 -30 3z"/>
<path d="M2320 440 c0 -5 11 -10 25 -10 17 0 25 -6 26 -17 0 -12 2 -13 6 -5 3
7 -1 19 -7 27 -14 17 -50 20 -50 5z"/>
<path d="M2073 405 c-2 -8 2 -25 9 -40 l14 -26 20 23 c15 18 16 20 1 9 -9 -8
-20 -11 -23 -8 -10 9 5 39 15 33 5 -3 11 0 14 8 4 9 -3 14 -20 14 -13 0 -27
-6 -30 -13z"/>
<path d="M2306 408 c3 -4 -4 -8 -15 -8 -12 0 -21 -5 -21 -11 0 -5 6 -7 13 -4
6 4 3 -1 -7 -9 -11 -9 -17 -17 -13 -17 4 -1 12 -2 17 -3 6 0 15 -7 19 -15 6
-8 11 -9 15 -3 3 6 2 13 -4 17 -5 3 -10 14 -10 23 0 15 2 15 11 2 9 -13 10
-12 5 3 -8 26 9 21 34 -10 l22 -28 -16 28 c-9 15 -14 32 -11 37 3 6 -5 9 -19
8 -13 -1 -22 -6 -20 -10z"/>
<path d="M1705 378 c-6 -13 -20 -24 -33 -26 -25 -4 -52 -44 -33 -50 14 -5 15
-39 0 -47 -21 -14 15 -129 38 -121 8 4 17 6 19 6 2 0 4 4 4 9 0 5 -9 7 -20 4
-11 -3 -20 -4 -20 -2 -1 2 -3 21 -6 41 -5 32 -2 39 25 59 37 27 38 34 9 36
-37 3 -50 48 -14 48 10 0 26 10 36 23 23 28 32 28 28 0 -2 -16 -9 -22 -22 -20
-14 3 -17 -1 -12 -13 3 -9 6 -19 6 -22 0 -3 9 6 20 20 23 29 25 48 8 65 -17
17 -22 15 -33 -10z m-30 -118 c-20 -23 -29 -21 -19 4 3 9 13 16 22 16 13 0 12
-3 -3 -20z"/>
<path d="M2160 350 c0 -6 5 -8 11 -4 6 3 16 0 21 -7 8 -12 9 -11 5 1 -4 18
-37 27 -37 10z"/>
<path d="M2249 339 c11 -12 25 -19 33 -16 9 4 8 6 -3 6 -9 1 -19 8 -23 16 -3
8 -10 15 -16 15 -6 0 -2 -9 9 -21z"/>
<path d="M815 322 c-5 -4 -11 -23 -12 -42 -2 -34 -2 -34 7 -7 5 16 14 35 21
43 12 15 1 19 -16 6z"/>
<path d="M2187 308 c-15 -13 -27 -30 -27 -37 0 -8 10 -1 22 14 l22 28 17 -22
c23 -28 33 -12 10 17 l-17 23 -27 -23z"/>
<path d="M1736 290 c-10 -17 -13 -30 -6 -30 10 0 34 49 27 56 -2 2 -11 -10
-21 -26z"/>
<path d="M1984 294 c-18 -14 -18 -15 4 -4 19 9 22 8 22 -8 0 -13 -9 -18 -35
-20 -19 -2 -35 2 -35 8 0 5 -4 10 -10 10 -5 0 -7 -7 -3 -15 3 -9 -3 -25 -12
-35 -10 -11 -13 -20 -8 -20 6 0 18 10 26 23 13 18 16 19 16 5 1 -9 -3 -20 -9
-23 -5 -3 -10 -14 -10 -24 0 -10 -10 -25 -22 -34 -13 -8 -19 -19 -15 -23 5 -5
13 -1 18 9 6 9 15 17 20 17 6 0 8 -4 5 -8 -2 -4 4 -8 15 -8 23 0 25 12 4 20
-18 7 -20 33 -2 50 6 7 14 13 17 13 28 2 49 18 52 40 2 15 8 28 15 30 7 3 10
-4 7 -19 l-5 -23 10 23 c6 12 15 22 22 22 16 0 69 -59 69 -77 0 -8 5 -11 10
-8 17 10 12 23 -25 60 -30 29 -43 35 -78 35 -24 0 -52 -7 -63 -16z"/>
<path d="M1809 278 c-1 -5 -2 -12 -3 -17 -2 -19 -16 -23 -31 -11 -9 7 -18 10
-22 6 -4 -3 2 -13 13 -21 22 -17 34 -19 34 -6 0 5 6 11 14 13 9 2 11 9 5 23
-4 11 -8 17 -10 13z"/>
<path d="M1476 252 c-3 -5 1 -15 9 -22 16 -14 20 -3 6 19 -5 8 -11 9 -15 3z"/>
<path d="M1710 245 c0 -3 7 -17 16 -31 16 -23 16 -26 -2 -40 -18 -14 -18 -14
4 -4 12 6 27 8 32 5 21 -13 9 13 -20 43 -16 18 -30 29 -30 27z"/>
<path d="M2030 225 c0 -16 -2 -17 -10 -5 -6 10 -10 11 -10 3 0 -7 -3 -12 -7
-12 -21 3 -33 -2 -33 -16 0 -8 5 -15 10 -15 6 0 10 7 10 16 0 14 3 14 15 4 9
-7 12 -18 8 -24 -5 -7 -1 -4 8 6 9 9 20 14 23 10 4 -3 4 2 0 11 -4 11 0 22 10
30 16 12 16 13 -3 13 -14 0 -21 -7 -21 -21z"/>
<path d="M1391 224 c-7 -8 -19 -13 -27 -10 -8 3 -14 1 -14 -4 0 -5 9 -12 20
-15 19 -6 44 -39 45 -60 0 -5 11 -12 25 -14 14 -1 28 -8 32 -15 6 -8 8 -7 8 2
0 7 5 10 10 7 6 -3 10 -1 10 4 0 6 -14 11 -31 11 -17 0 -28 4 -24 10 3 6 1 10
-6 10 -16 0 -38 31 -39 53 0 25 15 21 34 -8 13 -20 22 -24 39 -19 37 11 39 21
5 21 -21 0 -36 7 -46 21 -17 26 -22 26 -41 6z"/>
<path d="M2085 219 c-11 -17 -2 -18 19 -3 17 12 17 14 4 14 -9 0 -20 -5 -23
-11z"/>
<path d="M961 201 c-9 -6 -10 -11 -2 -15 6 -4 8 -13 5 -19 -4 -7 -3 -9 1 -4 8
7 18 47 12 47 -1 0 -8 -4 -16 -9z"/>
<path d="M1815 200 c-4 -6 4 -19 17 -29 13 -11 20 -22 16 -26 -8 -8 -48 12
-48 25 0 6 -4 10 -8 10 -15 0 -6 -45 9 -46 8 -1 20 -2 27 -3 6 0 12 -9 13 -18
0 -14 2 -14 9 3 5 12 14 25 20 29 8 5 4 11 -12 19 -13 7 -22 19 -20 29 3 19
-13 23 -23 7z"/>
<path d="M1287 193 c-11 -10 -8 -20 8 -27 10 -4 15 1 15 14 0 20 -11 26 -23
13z"/>
<path d="M1233 133 c-3 -9 -13 -11 -27 -7 -20 6 -20 5 2 -11 24 -17 36 -14 51
14 8 13 6 18 -5 18 -9 0 -18 -6 -21 -14z"/>
<path d="M1730 125 c-9 -11 -9 -15 -1 -15 7 0 9 -5 5 -11 -5 -8 -1 -8 14 0 30
16 36 30 10 23 -14 -3 -19 -2 -14 6 10 17 1 15 -14 -3z"/>
<path d="M394 714 c-18 -14 -18 -15 4 -4 12 6 28 8 34 4 7 -4 8 -3 4 4 -10 16
-18 15 -42 -4z"/>
</g>
</svg>
