<?xml version="1.0" standalone="no"?>
<!DOCTYPE svg PUBLIC "-//W3C//DTD SVG 20010904//EN"
 "http://www.w3.org/TR/2001/REC-SVG-20010904/DTD/svg10.dtd">
<svg version="1.0" xmlns="http://www.w3.org/2000/svg"
 width="18px" height="18px" viewBox="0 0 300.000000 300.000000"
 preserveAspectRatio="xMidYMid meet">
<metadata>
Created by potrace 1.10, written by Peter Selinger 2001-2011
</metadata>
<g transform="translate(0.000000,300.000000) scale(0.050000,-0.050000)"
fill="#000000" stroke="none">
<path d="M2620 5957 c-2147 -223 -3314 -2777 -2105 -4607 1623 -2457 5458
-1297 5455 1650 -2 1832 -1495 3150 -3350 2957z m320 -52 c-1 -56 -27 -106
-42 -82 -12 19 -17 10 -18 -27 0 -32 17 -65 40 -82 67 -46 -30 -172 -109 -142
-39 15 -40 -6 -1 -45 17 -16 30 -22 30 -13 0 9 23 26 50 39 41 19 50 18 50 -5
0 -15 -9 -29 -20 -30 -11 -2 -28 -4 -38 -5 -10 -2 -25 -10 -34 -18 -8 -8 -31
-15 -51 -15 -20 0 -37 -10 -37 -21 0 -66 -111 -106 -165 -60 -43 37 -44 50 -3
91 18 17 27 38 20 45 -7 7 -23 2 -36 -11 -13 -13 -40 -24 -59 -24 -19 0 -44
-16 -55 -35 -17 -30 -23 -26 -49 35 -26 60 -26 71 -2 76 16 4 29 16 29 27 0
10 -8 14 -19 8 -10 -6 -24 -3 -31 9 -7 11 2 20 20 20 19 0 27 9 18 23 -22 36
-86 -55 -76 -108 5 -25 -9 -9 -31 35 -41 81 -53 153 -26 147 29 -6 85 28 74
45 -7 10 -28 9 -50 -3 -22 -11 -39 -13 -39 -5 0 9 -8 4 -17 -10 -13 -21 -21
-20 -40 3 -19 22 -16 30 17 39 22 5 40 1 40 -9 0 -11 14 -6 31 12 18 17 47 32
65 33 19 0 50 4 69 8 19 3 40 -2 46 -12 6 -10 -3 -18 -20 -18 -17 0 -31 -10
-31 -21 0 -12 10 -15 22 -8 12 8 30 2 40 -13 13 -21 17 -16 18 18 0 26 9 41
20 34 11 -7 15 1 8 17 -7 20 4 30 36 31 175 8 235 14 244 23 16 17 112 20 112
4z m100 -7 c0 41 81 23 99 -23 14 -34 19 -37 20 -10 1 36 161 55 161 19 0 -91
-183 -116 -196 -27 -4 24 -14 43 -24 43 -9 0 -12 -18 -6 -40 21 -79 -80 -135
-132 -72 -34 41 13 141 51 109 20 -16 27 -16 27 1z m453 -49 c9 -23 18 -25 39
-7 20 16 28 16 28 1 0 -12 13 -17 28 -11 15 6 34 1 41 -11 7 -11 22 -21 33
-21 11 0 15 9 9 19 -24 39 200 -44 234 -86 19 -23 34 -32 35 -18 0 14 17 25
39 25 45 0 80 -44 44 -56 -13 -4 -18 -15 -12 -25 5 -9 21 -13 35 -8 15 6 25
-11 27 -42 l3 -52 -48 45 c-26 25 -48 58 -48 73 0 16 -11 24 -25 20 -14 -5
-62 2 -107 15 -105 31 -202 17 -281 -42 -66 -49 -103 -43 -62 10 22 28 21 29
-10 5 -23 -19 -29 -37 -17 -60 9 -18 10 -51 1 -73 -11 -26 -17 -30 -18 -10 -1
24 -5 25 -18 4 -14 -21 -34 -18 -100 17 -97 50 -97 51 -38 100 25 21 34 38 21
38 -13 1 -29 -8 -36 -19 -21 -34 -77 -22 -140 28 -78 63 -53 86 50 44 104 -41
160 -17 160 69 0 67 109 91 133 28z m-153 -47 c0 -21 -14 -43 -31 -50 -18 -6
-26 -3 -19 8 7 11 2 20 -11 20 -18 0 -18 8 1 30 34 41 60 38 60 -8z m-300 -62
c59 0 153 -137 132 -191 -6 -16 -2 -29 9 -29 11 0 25 14 32 30 15 40 32 38 87
-10 37 -32 39 -40 13 -40 -18 0 -34 -11 -34 -25 -1 -14 -11 -2 -22 25 -18 46
-22 47 -45 16 -15 -20 -33 -27 -44 -17 -10 10 -54 21 -98 25 -77 8 -80 10 -73
73 3 36 -8 86 -25 113 -38 57 -42 88 -8 54 13 -13 48 -24 76 -24z m-787 -95
c27 -63 78 -144 112 -180 l63 -65 -82 0 c-83 0 -221 -78 -141 -79 48 -1 46
-82 -4 -146 -22 -27 -34 -56 -26 -63 8 -8 -3 -8 -24 0 -31 12 -35 8 -24 -22
21 -54 -23 -170 -65 -170 -20 0 -53 -19 -74 -43 -38 -43 -38 -43 10 -18 35 19
59 20 95 3 61 -28 113 -29 97 -2 -7 12 -23 14 -35 7 -13 -8 -3 14 22 48 26 38
56 59 73 52 34 -13 91 112 88 190 -2 40 -8 32 -23 -32 -12 -48 -32 -85 -48
-85 -31 0 -36 32 -8 50 44 27 60 153 27 204 -38 58 -14 85 76 86 44 0 51 -7
44 -46 -9 -43 -4 -45 77 -35 l87 10 -75 7 c-41 3 -75 16 -75 28 0 14 29 16 85
6 47 -8 111 -14 142 -12 45 2 55 -4 45 -29 -6 -18 -12 -50 -12 -71 0 -53 -59
-73 -90 -31 -15 20 -38 29 -57 21 -40 -15 -97 -123 -69 -133 10 -3 0 -23 -23
-44 -36 -33 -41 -34 -30 -5 14 36 -5 44 -45 18 -15 -10 -17 -25 -6 -44 12 -20
4 -48 -26 -89 -57 -77 -98 -158 -93 -182 7 -37 -1 -69 -19 -69 -10 0 -16 15
-15 33 2 18 -10 37 -25 42 -17 6 -22 1 -14 -12 21 -34 -19 -28 -48 7 -38 46
-59 37 -91 -39 -35 -85 -36 -97 -4 -79 14 8 7 -3 -15 -25 -52 -52 -117 -58
-105 -9 6 21 -1 35 -19 35 -15 0 -23 -12 -17 -26 6 -18 -6 -27 -35 -27 -35 1
-38 4 -14 19 26 17 26 26 -4 76 -33 55 -32 59 15 116 27 33 68 122 92 199 23
77 59 156 80 176 20 19 37 48 37 63 0 15 12 31 27 37 15 6 46 48 70 93 48 92
52 109 23 91 -11 -7 -15 1 -8 17 7 18 -4 34 -29 42 -56 18 -70 70 -30 114 28
31 29 42 8 62 -22 20 -25 19 -15 -8 6 -19 -5 -48 -28 -69 -27 -24 -32 -42 -18
-56 30 -30 25 -92 -8 -92 -37 0 -49 -39 -30 -100 l14 -50 15 45 c19 63 49 56
49 -13 0 -56 -71 -104 -99 -66 -24 31 -77 24 -74 -9 2 -19 -19 -46 -47 -61
-50 -25 -50 -25 -4 -26 25 0 50 -12 56 -28 13 -33 -42 -250 -70 -278 -15 -15
-16 -2 -3 41 36 126 7 240 -52 208 -20 -11 -52 -25 -70 -30 -43 -13 -28 -78
30 -127 24 -21 33 -23 20 -6 -65 88 -35 171 33 90 14 -16 17 -30 7 -30 -9 0
-16 -42 -14 -93 4 -108 -33 -165 -73 -116 -14 16 -40 29 -57 29 -29 -1 -29 -3
-3 -20 28 -18 48 -102 22 -95 -6 2 -34 -9 -62 -25 -70 -39 -220 -44 -220 -8 0
15 -9 28 -20 28 -11 0 -20 18 -20 40 0 22 -10 40 -21 40 -12 0 -17 -8 -11 -17
25 -40 -72 -107 -135 -95 -75 15 -104 55 -57 79 19 10 45 32 59 49 30 38 33
92 5 74 -11 -7 -20 -2 -20 11 0 16 -8 18 -25 4 -14 -11 -50 -25 -81 -33 -50
-12 -53 -16 -25 -44 41 -40 39 -81 -3 -105 -31 -18 74 -83 134 -83 47 0 61
-59 29 -124 l-34 -66 43 45 c24 25 47 45 52 45 37 0 102 -95 89 -130 -14 -35
-16 -36 -18 -4 0 20 -10 31 -21 24 -11 -7 -20 -3 -20 9 0 11 -9 21 -20 21 -11
0 -20 -13 -20 -30 0 -16 14 -30 30 -30 17 0 30 -15 30 -34 0 -26 -13 -21 -60
24 -33 32 -60 49 -60 39 1 -28 25 -56 70 -81 97 -54 47 -188 -51 -137 -65 33
-88 81 -46 97 16 7 23 22 16 34 -10 16 -19 14 -30 -4 -19 -30 -26 -17 -48 92
-9 44 -7 52 8 30 18 -26 20 -26 21 2 0 18 -19 56 -41 85 -23 29 -36 62 -29 73
7 11 -9 20 -39 20 -58 0 -65 -23 -20 -68 47 -47 30 -156 -28 -184 -28 -14 -38
-29 -25 -37 12 -7 31 -8 42 -1 11 7 20 3 20 -7 0 -11 13 -23 29 -27 21 -4 24
-15 12 -35 -15 -23 -27 -25 -65 -6 -81 41 -126 39 -126 -5 0 -22 -7 -51 -15
-64 -9 -13 -7 -28 3 -35 24 -14 140 9 154 32 6 9 19 17 30 17 10 0 5 -22 -13
-48 -57 -88 -249 -150 -249 -81 0 17 -9 26 -20 19 -13 -8 -12 -27 2 -54 21
-40 19 -41 -52 -30 -92 15 -87 10 -93 96 -3 51 -14 71 -41 73 -44 3 -48 -26
-5 -43 50 -19 30 -121 -26 -128 -32 -5 -45 3 -45 28 0 19 -6 29 -13 22 -7 -8
-25 -4 -40 9 -47 38 -29 -6 21 -53 40 -37 65 -43 163 -37 l116 7 -42 -45 c-23
-25 -48 -70 -56 -100 -7 -31 -21 -60 -31 -66 -29 -18 -20 -69 12 -69 17 0 47
-10 68 -23 21 -13 53 -17 74 -8 23 10 29 19 14 25 -13 5 -34 40 -46 77 -13 38
-31 64 -41 58 -22 -13 -2 50 28 88 17 21 24 18 36 -15 9 -23 27 -42 40 -42 20
0 20 5 1 24 -35 35 -30 47 27 73 31 14 46 32 37 46 -10 16 -4 20 19 11 41 -16
167 104 185 176 14 58 33 63 69 19 28 -34 125 -89 156 -89 22 0 53 88 73 210
8 44 23 91 34 105 12 14 15 26 8 28 -6 1 -19 3 -27 5 -9 1 -43 23 -75 48 l-60
47 60 -13 c33 -7 63 -21 67 -32 10 -29 43 1 43 41 0 28 22 39 101 49 55 8 95
22 89 32 -6 10 21 12 63 6 50 -8 69 -5 60 9 -8 12 -3 29 10 37 14 9 18 6 9 -9
-9 -14 -2 -23 17 -23 17 0 31 -13 31 -30 0 -16 -10 -30 -21 -30 -12 0 -15 -10
-7 -23 10 -16 -2 -19 -41 -9 -35 9 -50 6 -41 -7 17 -29 -17 -26 -46 3 -19 19
-24 17 -24 -7 0 -28 -105 -137 -132 -137 -7 0 -7 14 0 31 7 19 3 26 -9 18 -12
-7 -17 -23 -13 -36 5 -13 -1 -41 -13 -63 -42 -75 -88 -240 -71 -251 10 -6 -12
-22 -49 -35 -77 -28 -113 -93 -113 -205 0 -54 -9 -79 -28 -79 -30 0 -56 115
-29 132 38 24 15 48 -25 27 -24 -13 -69 -19 -100 -14 -32 4 -58 1 -58 -8 0
-10 -22 -17 -49 -17 -47 0 -111 -46 -111 -79 0 -20 61 -49 93 -44 12 2 27 -15
33 -37 8 -30 1 -40 -29 -40 -25 0 -35 9 -27 25 7 14 -1 8 -19 -14 -17 -21 -31
-50 -31 -65 0 -14 -17 -26 -38 -26 -20 0 -48 -13 -62 -30 -13 -16 -32 -25 -41
-19 -9 5 -22 -9 -29 -31 -7 -22 -22 -40 -32 -40 -11 0 -41 -46 -67 -101 l-47
-102 -9 97 c-5 66 1 107 21 130 44 52 16 93 -68 100 -54 4 -76 16 -80 42 -4
28 1 31 21 15 18 -15 43 -16 80 -1 29 11 48 12 42 2 -6 -10 2 -28 17 -40 25
-21 30 21 14 122 -1 7 -20 19 -42 26 -22 7 -35 21 -29 31 6 11 3 19 -7 19 -10
0 -19 -28 -20 -62 -2 -86 -9 -87 -82 -17 -52 50 -70 57 -93 38 -57 -47 -51 33
17 210 67 176 68 177 100 130 18 -25 39 -40 47 -32 8 7 4 24 -9 37 -36 36 -29
105 20 206 46 94 81 108 92 36 5 -33 104 -63 104 -32 0 2 -9 26 -20 55 -12 33
-12 51 0 51 11 0 20 -9 20 -20 0 -11 20 -19 45 -19 41 2 42 3 6 17 -26 10 -31
20 -15 30 13 8 24 37 24 66 0 42 -5 47 -29 27 -16 -13 -48 -21 -72 -18 -42 7
201 377 248 377 9 0 69 55 132 122 90 96 118 115 127 90 27 -69 194 -11 194
68 0 21 -16 47 -35 58 -19 10 -30 22 -25 26 6 4 53 36 105 73 86 59 141 71 61
13 -32 -24 -32 -27 0 -59 42 -42 42 -46 3 -85 -18 -18 -24 -37 -13 -44 10 -7
29 -32 42 -58 48 -91 -186 -128 -298 -47 -27 20 -62 32 -77 28 -52 -18 131
-104 251 -118 84 -9 212 38 261 97 24 29 11 136 -17 136 -10 0 -18 9 -18 19 0
11 14 15 30 8 17 -6 30 -1 30 11 0 12 -15 22 -33 22 -135 0 -136 134 -2 209
152 86 364 84 293 -2 -18 -21 -14 -27 20 -27 24 0 42 13 42 30 0 17 11 30 25
30 14 0 37 18 50 40 14 22 17 40 6 40 -10 0 -24 -9 -32 -21 -9 -15 -20 -15
-38 0 -13 11 -30 16 -36 9 -6 -6 -50 -13 -97 -17 -84 -6 -85 -6 -31 22 30 16
62 24 72 18 10 -6 31 2 47 18 130 129 284 119 347 -24z m1636 9 c17 -17 49
-37 70 -44 39 -12 73 -78 64 -125 -3 -14 2 -25 11 -25 9 0 36 -6 61 -13 32 -8
45 -3 45 18 0 49 185 88 235 49 14 -10 25 -12 25 -3 0 9 14 -1 31 -22 18 -22
26 -27 18 -12 -11 22 -6 23 29 4 23 -12 42 -27 42 -33 0 -6 -10 -4 -23 4 -15
9 -18 5 -8 -10 11 -18 22 -18 41 -2 37 31 110 -17 110 -71 0 -78 52 -126 86
-80 28 37 196 -55 193 -106 -1 -27 -59 -89 -103 -112 -28 -14 -45 -40 -44 -67
0 -24 -10 -44 -23 -44 -37 0 -71 51 -57 88 20 52 -9 137 -43 124 -18 -7 -29 2
-30 24 -1 24 -7 20 -21 -14 -10 -26 -24 -43 -30 -37 -6 7 -2 30 10 52 29 54
27 142 -6 200 -22 41 -28 43 -39 14 -7 -19 -4 -28 7 -21 11 7 21 5 22 -4 11
-88 9 -126 -6 -126 -10 0 -13 -8 -7 -18 6 -11 -3 -33 -20 -50 -18 -18 -25 -32
-17 -32 8 0 -6 -17 -30 -38 -35 -31 -39 -42 -17 -55 14 -10 26 -35 26 -57 -1
-31 12 -40 59 -40 33 0 81 -12 107 -27 27 -15 42 -18 34 -5 -7 12 -8 22 -1 22
7 0 21 -27 33 -60 12 -34 30 -54 42 -47 14 9 17 1 8 -23 -9 -22 -1 -50 20 -74
33 -35 33 -37 1 -25 -25 10 -31 5 -23 -16 6 -17 -2 -43 -19 -60 -17 -17 -25
-36 -18 -43 7 -6 4 -12 -8 -12 -23 0 -106 -68 -106 -87 0 -7 12 -13 26 -13 43
0 38 -96 -6 -120 -41 -22 -56 -80 -21 -80 25 0 164 -143 152 -156 -5 -5 -1
-26 10 -45 11 -22 12 -41 1 -48 -10 -6 -16 -27 -13 -45 2 -19 -16 -57 -42 -85
-57 -62 -59 -81 -7 -81 62 0 125 -73 101 -117 -28 -54 10 -83 81 -63 31 9 56
11 55 3 -10 -76 127 -85 161 -9 19 41 33 48 87 40 74 -10 202 -81 182 -101 -8
-7 -5 -13 6 -13 11 0 21 -11 22 -25 0 -14 8 -54 16 -90 12 -56 8 -67 -34 -83
-26 -11 -34 -20 -17 -21 17 0 2 -20 -35 -46 -63 -44 -86 -95 -44 -95 12 0 8
-14 -10 -31 -44 -45 -39 -63 21 -78 29 -7 47 -18 41 -25 -7 -7 -3 -23 8 -37
36 -43 40 -109 7 -109 -17 0 -25 -8 -19 -18 6 -11 -3 -34 -22 -52 -24 -24 -27
-38 -10 -55 13 -13 23 -38 23 -57 0 -28 16 -33 87 -29 109 6 249 -56 264 -118
35 -136 12 -271 -44 -271 -20 0 -23 -23 -14 -90 11 -81 9 -89 -22 -78 -32 13
-33 9 -6 -44 32 -63 31 -194 -1 -234 -11 -13 -21 -31 -22 -39 -3 -59 -132
-153 -165 -120 -32 32 -92 6 -106 -47 -7 -29 -26 -48 -48 -48 -28 0 -36 -16
-36 -73 0 -142 -223 -257 -290 -149 -25 40 -75 35 -103 -11 -9 -15 -28 -27
-42 -27 -15 0 -27 -25 -28 -60 -4 -159 -226 -262 -381 -179 -34 19 -57 38 -52
44 6 5 -3 15 -19 22 -19 7 -35 -4 -42 -28 -7 -22 -19 -36 -26 -32 -30 17 -94
-23 -95 -59 -2 -47 -72 -168 -98 -168 -10 0 -37 -17 -60 -37 -139 -124 -470
-72 -508 79 -8 33 -19 83 -21 99 -1 6 -33 12 -71 13 -123 4 -236 123 -193 203
27 50 -7 79 -87 76 -50 -3 -61 -13 -73 -69 -15 -72 -70 -144 -110 -144 -14 0
-35 -15 -45 -34 -15 -27 -45 -33 -149 -30 -123 3 -131 0 -143 -47 -6 -28 -21
-45 -32 -39 -10 7 -19 -2 -19 -19 0 -23 -21 -31 -78 -31 -80 0 -112 -31 -82
-80 39 -64 -31 -208 -111 -228 -27 -7 -49 -22 -49 -34 0 -11 -8 -15 -19 -9
-41 26 55 433 133 558 120 193 355 320 728 393 131 25 204 91 287 256 76 153
29 215 -214 281 -70 19 -195 -88 -195 -167 0 -39 -120 -159 -218 -219 -324
-197 -536 -557 -593 -1006 -14 -115 -16 -117 -95 -80 -99 46 -158 253 -87 305
53 39 39 84 -31 98 -58 11 -60 14 -26 39 34 25 32 29 -27 55 -35 15 -68 44
-75 63 -6 19 -17 35 -25 35 -22 0 -16 108 7 125 12 9 10 15 -6 15 -15 0 -5 22
24 54 l50 53 -76 34 c-52 23 -83 54 -97 95 -34 96 -141 65 -180 -52 -16 -46
-36 -80 -45 -74 -9 6 -20 1 -24 -11 -11 -34 -162 -78 -190 -55 -13 10 -33 14
-43 8 -35 -22 -140 84 -129 128 6 22 1 40 -11 40 -12 0 -17 12 -12 26 15 39
-147 33 -171 -6 -11 -16 -20 -21 -20 -11 0 10 -11 8 -24 -5 -40 -40 -130 -28
-170 23 -20 25 -46 43 -58 39 -62 -21 -103 225 -43 257 34 18 30 26 -43 90
-78 68 -108 166 -53 167 12 0 8 9 -9 20 -27 17 -26 19 1 20 18 0 32 20 34 50
3 33 -6 50 -25 50 -45 0 -113 152 -111 247 2 46 3 99 3 118 0 20 10 30 22 23
12 -8 17 -2 12 13 -11 34 56 101 105 105 49 3 68 52 32 82 -41 32 -55 133 -21
146 15 5 23 18 17 28 -6 10 -2 19 10 21 73 8 70 1 51 97 -14 76 33 246 81 294
16 16 40 44 54 64 58 83 354 160 355 93 0 -12 9 -7 20 9 17 26 19 25 20 -4 0
-20 11 -31 25 -25 14 5 24 39 23 74 -2 70 72 142 125 121 31 -12 39 104 8 123
-30 19 -5 98 43 134 34 25 49 28 60 11 12 -18 15 -18 16 1 0 14 14 25 31 25
23 0 30 23 29 95 -2 129 3 165 25 165 9 0 14 7 9 15 -5 8 17 39 49 69 31 30
57 48 58 40 0 -8 11 0 25 16 37 45 331 83 303 39 -10 -17 38 -39 84 -39 17 0
27 11 22 25 -9 28 31 75 64 75 11 0 21 8 21 17 0 17 37 25 125 25 49 0 65 17
57 63 -5 35 44 195 60 195 10 0 18 14 18 30 0 17 10 30 21 30 12 0 16 9 9 20
-7 11 2 20 19 20 17 0 31 9 31 21 0 28 137 84 172 71 16 -6 39 12 56 44 16 30
36 54 45 54 9 0 14 26 10 57 -9 86 12 149 57 163 22 7 36 20 31 29 -15 24 93
68 159 64 126 -8 150 -14 150 -31 0 -10 5 -13 12 -7 7 7 33 -10 59 -38 47 -51
89 -49 89 3 0 56 148 97 165 46 11 -33 55 -1 55 41 0 19 11 47 25 62 20 22 19
24 -5 10 -16 -9 -7 7 21 36 84 87 264 113 328 49z m371 -34 c39 -21 61 -39 50
-40 -11 -1 -58 -9 -103 -18 -75 -14 -85 -12 -94 24 -22 83 34 96 147 34z
m-1681 -244 c2 -31 -89 20 -96 54 -6 32 -3 32 44 -3 29 -20 52 -43 52 -51z
m-1039 -109 c0 -13 11 -27 24 -32 15 -5 17 -21 6 -46 -9 -22 -17 -47 -18 -57
-1 -9 -24 -32 -51 -50 l-50 -32 35 49 c19 28 34 64 34 80 -1 27 -3 28 -20 1
-14 -22 -19 -4 -20 64 0 51 -9 99 -20 106 -11 7 -20 23 -19 36 1 30 99 -88 99
-119z m-322 -34 c-24 -52 -78 -74 -78 -31 0 21 85 100 96 89 3 -3 -5 -29 -18
-58z m1025 -122 c-22 -38 -31 -72 -20 -75 19 -7 -63 -116 -87 -116 -21 0 20
122 53 159 17 19 26 39 21 45 -6 6 3 22 20 36 16 14 31 40 32 57 2 27 4 27 12
-3 5 -19 -9 -66 -31 -103z m329 66 c9 -14 5 -18 -9 -9 -15 9 -23 -1 -23 -27 0
-22 -9 -41 -20 -41 -11 0 -20 17 -20 37 0 60 44 85 72 40z m2388 -73 c0 -21
-25 -45 -65 -60 -50 -19 -59 -29 -36 -43 20 -12 37 -7 55 15 24 31 25 31 13
-4 -11 -32 -6 -37 30 -27 23 6 43 5 43 -4 0 -30 -26 -39 -61 -20 -25 13 -38
11 -45 -6 -13 -37 -84 10 -84 56 0 25 22 42 70 55 39 11 59 23 45 28 -35 13
-31 46 5 46 17 0 30 -16 30 -36z m90 -46 c0 -15 -20 -29 -44 -30 -38 -2 -41 3
-24 36 23 43 68 39 68 -6z m-42 -141 c-10 -17 -4 -19 24 -7 130 58 250 -28
234 -167 -5 -44 0 -97 12 -117 17 -29 19 -23 9 28 -15 83 6 149 34 105 10 -16
19 -49 19 -73 0 -30 9 -41 28 -34 42 16 127 -130 90 -156 -22 -16 -21 -17 6
-9 41 13 167 -190 148 -238 -6 -16 -2 -29 8 -29 22 0 67 -79 53 -94 -18 -18
-93 16 -93 42 0 14 -24 36 -53 50 -50 23 -51 25 -15 51 36 26 36 29 3 42 -47
18 -95 -3 -95 -42 0 -17 9 -26 20 -19 26 16 25 -2 -1 -51 -11 -22 -30 -39 -42
-39 -14 0 -12 13 5 35 34 43 -57 -27 -96 -75 -22 -26 -25 -26 -25 3 -1 18 13
38 29 44 17 7 30 26 30 44 0 17 -9 26 -20 19 -11 -7 -20 -3 -20 8 0 11 9 25
20 32 39 24 62 87 30 82 -42 -6 -49 -17 -57 -93 -10 -96 -52 -115 -151 -70
-79 36 -80 38 -42 65 22 16 40 38 40 50 0 15 -8 15 -26 -1 -29 -23 -125 -19
-149 7 -8 9 -2 9 14 0 15 -9 5 14 -22 52 -69 93 -94 159 -43 115 97 -84 226
-119 226 -62 0 19 6 56 13 83 10 35 6 45 -15 38 -15 -5 -28 -27 -28 -48 0 -29
-13 -37 -57 -34 -60 4 -139 60 -123 86 5 9 -4 27 -20 40 -17 15 -29 55 -28 97
l2 73 29 -95 c29 -93 52 -116 78 -74 7 11 29 15 49 9 20 -6 42 -3 48 7 7 11
-24 26 -68 33 -90 15 -132 104 -108 227 16 80 39 81 55 3 14 -71 99 -122 138
-83 18 18 15 31 -12 58 -30 31 -37 31 -54 5 -17 -27 -21 -27 -39 0 -23 35 -25
68 -7 87 22 21 31 15 15 -10z m-144 -76 c-34 -78 -34 -78 -48 -27 -8 29 -9 61
-2 72 7 11 2 14 -11 6 -13 -8 -23 -5 -23 7 0 11 26 21 59 21 l58 0 -33 -79z
m-2744 -131 c14 -17 20 -37 13 -44 -7 -7 -13 -2 -13 12 0 13 -9 19 -20 12 -12
-7 -15 -21 -9 -31 6 -11 2 -19 -10 -19 -11 0 -21 23 -21 50 0 57 23 64 60 20z
m-740 -50 c0 -11 -11 -20 -25 -21 -14 0 -9 -9 10 -21 56 -33 41 -58 -23 -36
-43 15 -55 30 -47 59 10 39 85 56 85 19z m3401 -76 c-17 -59 -15 -64 30 -64
28 0 49 -12 49 -28 0 -15 24 -79 53 -143 44 -96 49 -122 28 -154 -34 -56 -12
-65 35 -14 l41 43 34 -52 c36 -55 30 -195 -9 -208 -11 -4 -15 -19 -9 -35 6
-16 20 -24 30 -17 10 6 33 0 49 -14 39 -32 68 5 54 69 -8 35 -5 37 12 13 29
-41 28 -126 -3 -159 -20 -22 -19 -25 10 -15 22 8 35 3 35 -15 0 -15 11 -32 25
-38 17 -7 15 -10 -6 -11 -16 -1 -50 12 -74 29 -36 25 -42 26 -34 2 9 -22 -6
-27 -71 -23 -99 7 -133 30 -43 30 74 0 76 7 23 65 -34 36 -40 37 -40 9 0 -37
-16 -42 -54 -18 -15 10 -17 26 -6 44 20 33 -10 80 -52 80 -42 0 -33 34 11 46
49 12 27 117 -37 176 -24 23 -35 52 -28 78 14 51 -45 120 -102 120 -23 0 -33
7 -22 15 47 35 72 82 50 95 -11 7 -20 6 -18 -4 7 -39 -4 -54 -20 -28 -12 19
-4 58 24 115 48 99 62 103 35 11z m-4092 -46 c-8 -12 -41 -17 -76 -11 -35 5
-52 6 -38 0 14 -6 25 -29 25 -52 0 -40 -1 -40 -40 -5 -30 28 -35 42 -17 63 27
33 166 38 146 5z m291 -278 c26 -18 26 -22 1 -39 -19 -12 -39 -11 -55 3 -56
46 -9 77 54 36z m4174 -104 c31 -13 72 -37 91 -53 30 -25 43 -26 86 -2 59 31
97 15 147 -61 24 -36 25 -44 4 -31 -19 11 -24 8 -18 -11 12 -35 94 -48 122
-20 16 16 10 22 -22 22 -24 0 -44 9 -44 20 0 11 14 20 30 20 17 0 29 7 28 15
-10 61 50 72 116 21 36 -28 88 -196 61 -196 -12 0 -8 -11 10 -25 33 -25 86
-211 66 -231 -6 -6 -1 -22 11 -37 13 -15 17 -40 11 -57 -13 -33 -113 -42 -113
-9 0 13 -14 13 -42 -2 -24 -13 -37 -14 -31 -3 17 26 -49 50 -72 27 -24 -24 1
-105 32 -101 67 8 77 -3 35 -41 -41 -35 -5 -99 41 -75 5 2 -14 -17 -42 -42
-33 -29 -39 -41 -16 -32 23 8 49 -4 77 -35 l41 -47 -10 45 c-5 25 -1 40 10 33
10 -6 15 9 11 35 -5 26 -4 37 0 24 10 -28 86 -50 86 -25 0 10 -8 18 -19 18
-56 0 -75 114 -23 136 29 13 34 19 12 14 -22 -5 -52 -1 -67 8 -19 12 -9 19 34
26 79 11 96 -34 115 -304 14 -197 -2 -250 -48 -167 -21 36 -64 21 -64 -23 0
-14 -11 -31 -25 -36 -36 -12 -15 -27 63 -44 44 -9 63 -7 54 6 -7 12 -4 27 8
34 12 7 20 -14 20 -54 -1 -105 -24 -216 -43 -204 -9 6 -17 1 -17 -10 0 -11 8
-25 18 -31 11 -6 8 -59 -7 -126 -14 -63 -36 -167 -50 -231 -17 -81 -33 -114
-50 -107 -15 6 -46 -4 -70 -20 -41 -29 -42 -28 -30 26 25 112 53 188 78 213
21 21 20 50 -8 159 -31 124 -31 131 1 114 18 -10 39 -41 46 -68 7 -28 27 -51
45 -51 20 0 27 11 20 30 -7 17 -2 30 11 30 12 0 17 6 10 13 -7 7 -27 1 -44
-13 -25 -21 -30 -18 -30 15 0 23 -12 45 -27 51 -15 6 -33 30 -39 54 -11 41 -9
42 25 11 24 -22 42 -26 50 -12 8 12 -2 21 -20 21 -25 0 -31 13 -25 48 9 42 3
47 -52 45 -50 -3 -63 6 -69 43 -9 67 31 106 94 92 50 -11 49 -9 -12 30 -43 27
-65 57 -64 87 0 44 1 44 50 -11 43 -50 49 -52 49 -16 0 43 64 74 105 50 20
-11 20 -8 1 13 -20 21 -35 21 -80 1 -46 -21 -58 -20 -77 6 -25 34 -69 7 -69
-42 0 -14 -11 -26 -24 -26 -13 0 -6 -13 15 -29 84 -61 -39 -92 -131 -32 -25
16 -25 30 -5 84 16 42 17 57 2 42 -31 -31 -77 -8 -62 30 6 17 4 26 -7 20 -10
-6 -18 15 -18 47 0 36 10 58 27 58 17 0 24 -14 18 -38 -7 -27 5 -45 42 -62 29
-13 47 -17 39 -9 -8 8 5 30 29 49 37 30 40 40 17 68 -15 17 -22 54 -17 81 11
59 -27 59 -52 1 -12 -27 -21 -32 -27 -14 -6 15 3 42 20 60 42 49 56 163 17
148 -21 -8 -26 -2 -17 22 8 21 3 29 -14 22 -14 -5 -25 4 -25 21 0 17 7 32 16
34 26 3 44 9 84 27 47 20 137 -10 149 -50 7 -22 -2 -20 -33 8 -24 21 -48 33
-55 27 -6 -7 7 -22 30 -34 26 -14 37 -34 30 -56 -9 -27 -3 -26 27 8 28 32 47
38 71 24 20 -11 34 -11 34 -1 0 35 -81 91 -155 106 l-75 16 75 -5 c41 -3 75
-3 75 -1 0 3 6 20 13 39 11 29 7 30 -29 11 -23 -12 -65 -22 -94 -22 -56 0
-157 -45 -218 -97 -36 -31 -37 -30 -28 20 7 39 3 51 -17 43 -15 -6 -22 -18
-16 -28 13 -21 4 -22 -36 -7 -19 7 -26 29 -20 60 11 55 45 67 45 15 0 -27 5
-29 25 -9 19 19 19 28 1 39 -16 10 -18 25 -5 45 25 40 23 76 -2 39 -18 -26
-25 -23 -52 15 -18 25 -43 45 -57 45 -13 0 -57 50 -97 110 -41 61 -69 110 -64
110 5 0 34 -11 65 -24z m-4074 -237 c0 -12 8 -16 18 -10 20 12 42 -34 41 -86
0 -30 -3 -30 -27 2 -32 42 -92 46 -92 7 0 -15 -13 -33 -30 -39 -16 -6 -29 -5
-27 3 6 41 -7 57 -48 56 -57 -2 -61 55 -5 64 32 5 34 2 11 -14 -17 -11 -24
-26 -17 -33 7 -7 29 6 49 29 37 43 127 58 127 21z m3827 -97 c34 -38 36 -46 9
-36 -18 6 -38 1 -43 -12 -5 -13 -11 -4 -11 20 -1 24 -10 49 -20 55 -10 6 -13
31 -6 56 12 42 13 42 20 5 4 -22 27 -62 51 -88z m-4540 -31 c16 -41 0 -102
-25 -96 -12 3 -22 -4 -22 -15 0 -11 13 -20 29 -20 16 0 42 -19 58 -41 21 -30
31 -34 38 -15 6 14 9 2 7 -27 -1 -29 -9 -49 -17 -44 -8 5 -15 1 -15 -10 0 -10
14 -24 30 -30 37 -15 41 -204 6 -287 l-24 -56 -8 70 c-9 84 -35 120 -88 120
-26 0 -37 -11 -32 -35 4 -19 24 -35 46 -35 31 0 42 -16 46 -66 6 -62 4 -65
-35 -45 -22 12 -42 15 -43 7 -2 -9 -4 -25 -5 -36 -2 -11 -12 -21 -23 -23 -11
-2 -18 5 -15 16 8 28 -55 45 -77 20 -10 -13 -12 -18 -5 -13 15 11 87 -47 87
-70 0 -8 -29 -54 -65 -102 -73 -100 -78 -122 -35 -142 20 -9 12 -14 -25 -15
-61 -1 -78 66 -30 118 20 21 20 24 0 13 -26 -15 -39 247 -14 273 6 6 15 68 20
138 14 228 100 357 137 208 7 -28 22 -51 32 -51 11 0 20 -8 20 -19 0 -33 41
-127 51 -117 6 6 1 35 -11 66 -17 45 -15 60 15 81 32 24 29 27 -24 23 -44 -3
-60 5 -63 31 -3 27 -2 28 6 4 14 -45 75 -27 82 25 6 42 1 44 -95 32 -106 -12
-143 20 -59 51 37 14 38 18 10 42 -45 37 -40 55 23 86 61 31 97 26 112 -14z
m358 -19 c19 -46 3 -68 -28 -37 -12 12 -34 17 -49 11 -16 -6 -28 0 -28 13 0
13 9 18 20 11 11 -7 20 2 20 19 0 42 46 30 65 -17z m349 -84 c4 -13 -16 -18
-53 -12 -33 4 -55 17 -49 27 15 25 93 13 102 -15z m-559 -548 c1 -22 -19 -63
-46 -89 -27 -27 -49 -61 -49 -75 0 -15 -20 -35 -45 -46 -25 -11 -48 -41 -52
-67 -4 -30 2 -43 15 -34 12 7 38 4 57 -7 34 -20 10 -33 -42 -24 -10 2 -13 -10
-6 -27 14 -37 -7 -39 -76 -8 -41 19 -48 32 -37 75 11 47 9 49 -21 25 -18 -16
-33 -22 -33 -15 0 19 78 92 98 92 21 0 150 141 181 198 28 53 52 54 56 2z
m4932 -45 c-5 -9 -20 -9 -33 -1 -14 8 -12 -1 3 -20 16 -19 19 -34 7 -34 -11 0
-29 26 -40 57 -19 55 -18 56 26 35 26 -12 42 -28 37 -37z m-5067 12 c0 -36
-55 -107 -83 -107 -9 0 -1 32 17 70 36 75 66 91 66 37z m5163 -170 c65 -20 73
-28 52 -54 -20 -24 -20 -28 0 -16 35 21 31 -17 -4 -46 -45 -37 -116 -8 -91 38
15 29 11 39 -20 47 -22 6 -40 20 -40 32 0 27 7 27 103 -1z m-5346 -178 c81 -1
106 -49 92 -173 l-13 -119 -66 21 c-71 22 -109 131 -65 187 13 16 13 25 0 25
-11 0 -25 19 -31 42 -8 31 -4 38 19 30 17 -7 45 -12 64 -13z m41 -307 c13 -15
22 -35 20 -45 -7 -40 4 -55 21 -28 14 23 21 17 32 -25 7 -30 21 -54 31 -54 33
0 18 -57 -22 -86 -22 -15 -34 -34 -27 -41 8 -7 3 -13 -9 -13 -31 0 -77 76 -92
150 -29 151 -29 170 -3 170 14 0 37 -13 49 -28z m163 -271 c-36 -66 -24 -155
28 -217 46 -54 54 -110 29 -194 -13 -41 66 -162 141 -218 75 -55 115 -133 90
-173 -7 -11 -5 -18 5 -15 27 8 126 -67 126 -96 0 -16 -8 -28 -18 -28 -10 0
-13 -18 -8 -41 17 -64 57 -32 49 40 -7 74 30 125 119 162 70 29 95 13 56 -36
-74 -92 -85 -145 -30 -145 12 0 9 9 -8 20 -24 15 -19 19 22 20 28 0 68 18 88
40 64 71 150 54 150 -29 0 -88 78 -73 110 21 19 55 45 87 73 88 23 0 80 -142
69 -171 -6 -16 -30 -29 -53 -29 -25 0 -36 -9 -28 -22 7 -12 30 -17 51 -12 21
6 38 3 38 -7 0 -9 -43 -20 -95 -23 -79 -5 -95 -13 -95 -46 0 -80 141 -63 194
24 30 48 35 50 35 16 1 -54 -72 -170 -106 -170 -44 0 -213 80 -213 101 0 10
-14 19 -32 19 -23 0 -28 11 -19 35 25 63 22 70 -38 87 -72 20 -83 13 -42 -28
24 -24 26 -43 12 -82 -11 -29 -15 -65 -8 -82 6 -16 1 -30 -11 -30 -12 0 -22
-10 -22 -22 0 -12 13 -17 30 -11 16 6 27 5 25 -3 -9 -25 84 -104 120 -103 32
1 31 4 -3 25 -85 53 -112 94 -110 169 1 74 1 74 21 20 11 -30 29 -55 40 -55
11 0 13 11 5 25 -8 14 4 9 27 -12 38 -33 77 -48 140 -51 14 -1 25 -12 25 -25
0 -15 -25 -18 -75 -10 -51 8 -66 6 -45 -7 17 -11 53 -20 80 -21 49 -1 49 -1
-10 -28 -33 -15 -46 -28 -30 -29 106 -2 251 151 271 288 11 75 17 83 61 75 34
-7 48 -1 48 22 0 19 -11 27 -27 21 -25 -9 -192 143 -193 175 0 8 27 3 60 -9
98 -37 152 31 75 93 -65 53 -69 73 -15 73 22 0 40 -13 40 -29 0 -15 28 -50 62
-77 54 -42 59 -54 40 -90 -47 -88 6 -265 88 -297 17 -6 30 -25 30 -43 0 -17
14 -47 32 -66 25 -28 27 -43 8 -78 -12 -23 -17 -69 -10 -101 16 -72 -157 -96
-176 -24 -8 30 -12 28 -24 -10 -18 -55 -32 -56 -91 -8 -60 48 -35 83 58 83
116 0 163 45 163 154 0 51 -6 87 -13 79 -8 -7 -12 -49 -10 -94 3 -94 -40 -126
-94 -69 -31 33 -31 35 2 23 19 -6 35 -3 35 8 0 10 -18 19 -40 19 -22 0 -40 -9
-40 -20 0 -11 -16 -20 -35 -19 -48 1 71 99 120 99 39 0 47 30 13 51 -16 10
-16 18 2 29 17 10 15 17 -6 26 -21 8 -33 -7 -41 -47 -8 -39 -24 -59 -47 -59
-23 0 -58 -42 -98 -119 l-61 -118 55 -42 c31 -22 71 -41 88 -41 18 0 26 -10
19 -21 -7 -12 -25 -17 -39 -12 -14 6 -43 -3 -65 -18 -22 -15 -45 -22 -52 -15
-7 7 -13 2 -13 -11 0 -28 73 -31 90 -3 26 42 49 17 39 -45 l-9 -65 20 60 c28
87 120 148 120 80 0 -16 16 -30 35 -30 26 1 28 5 9 17 -20 13 -13 26 28 53 57
37 148 -28 148 -106 0 -15 9 -21 20 -14 11 7 20 3 20 -9 0 -11 -4 -21 -8 -21
-5 0 -23 -6 -41 -13 -27 -10 -31 -2 -22 45 l11 58 -28 -60 c-35 -74 33 -102
87 -37 37 44 197 51 246 11 40 -33 58 -164 20 -150 -16 7 -21 0 -15 -18 6 -15
31 -29 56 -30 24 -1 64 -9 89 -17 33 -10 45 -6 45 17 0 17 20 48 45 68 74 60
113 117 70 100 -23 -8 -35 -3 -35 17 0 18 20 29 52 29 52 0 52 -1 19 -52 -19
-28 -30 -56 -24 -61 5 -6 25 13 44 41 36 56 27 112 -18 112 -46 0 -138 -55
-115 -69 11 -7 15 -25 9 -42 -6 -16 -19 -24 -29 -18 -73 45 103 263 193 241
34 -9 48 -6 39 7 -7 12 -2 21 10 21 12 0 20 -11 19 -25 -8 -55 2 -95 23 -95
14 0 19 37 15 100 -8 109 57 143 130 70 17 -16 38 -30 48 -30 10 0 18 -16 18
-35 -1 -150 28 -189 70 -96 18 39 16 55 -9 79 -38 38 -22 112 24 112 48 0 82
40 82 95 0 54 -59 34 -124 -43 -19 -23 -35 -31 -35 -18 -1 14 -15 20 -33 13
-24 -10 -30 -2 -25 35 6 38 19 48 62 47 31 0 47 7 37 17 -42 42 -112 6 -112
-57 0 -60 -2 -61 -95 -61 -65 0 -95 8 -95 26 0 47 -35 28 -114 -62 -120 -136
-193 -282 -166 -332 17 -31 15 -51 -10 -85 -30 -44 -31 -44 -18 18 15 76 -25
111 -65 56 -22 -29 -27 -31 -27 -6 0 17 20 41 45 53 45 21 45 21 -8 23 -80 2
-115 55 -51 79 28 11 56 29 63 41 8 12 22 16 32 10 11 -6 20 3 22 20 2 30 7
54 17 86 2 8 3 38 1 65 -3 43 11 55 83 80 50 18 94 48 105 74 16 35 35 43 103
40 46 -1 120 14 166 35 l83 37 49 -46 49 -46 21 56 c16 42 14 66 -7 99 -26 38
-25 49 9 92 l37 49 1 -48 c1 -111 109 -222 216 -222 48 0 64 -13 92 -75 36
-80 145 -165 212 -165 55 0 50 -25 -18 -98 -32 -34 -52 -63 -45 -65 7 -1 36
-4 63 -5 42 -2 49 -11 46 -57 -2 -30 4 -55 14 -55 9 0 20 -20 24 -45 6 -32 11
-23 18 30 8 59 0 85 -38 126 -45 48 -46 54 -15 100 40 61 122 66 137 9 23 -89
112 -66 114 30 2 87 198 185 296 148 55 -21 40 -58 -23 -58 -73 0 -93 -35 -59
-103 30 -59 106 -38 106 29 0 11 -18 4 -40 -16 -22 -20 -40 -27 -40 -15 0 12
-5 38 -12 58 -7 22 -5 28 5 16 20 -24 47 -25 85 -1 19 13 24 11 14 -5 -8 -13
-5 -23 7 -23 11 0 21 8 21 17 0 30 222 20 234 -10 6 -15 20 -22 33 -15 13 6 6
-3 -16 -21 -21 -17 -50 -31 -65 -31 -18 0 -16 -11 9 -40 35 -41 98 -57 74 -19
-8 13 2 19 24 15 38 -6 40 4 17 74 -11 32 -10 34 8 10 17 -23 21 -24 22 -3 0
16 12 23 31 15 18 -6 26 -3 19 8 -7 11 -3 20 9 20 11 0 22 16 22 35 2 30 4 29
19 -5 12 -28 18 -31 19 -9 1 41 -38 79 -83 79 -23 0 -36 -15 -36 -41 0 -23 -9
-36 -20 -29 -11 7 -20 2 -20 -10 0 -54 -46 -3 -50 56 -3 35 3 59 12 53 10 -6
18 -2 18 10 0 11 -12 21 -28 21 -75 0 -47 97 32 111 43 7 95 31 117 54 21 23
63 58 94 78 30 20 44 37 31 37 -28 0 -12 56 27 96 20 20 36 21 69 3 24 -13 74
-18 111 -12 52 8 71 2 87 -27 32 -60 25 -101 -15 -86 -31 11 -31 8 3 -31 32
-36 35 -52 16 -93 -13 -28 -18 -50 -12 -50 43 0 86 179 59 245 -29 68 -28 71
30 123 32 29 59 70 59 91 0 21 9 44 20 51 12 7 17 19 12 26 -4 8 5 26 20 40
23 21 28 17 28 -25 0 -29 17 -61 39 -75 27 -17 33 -32 19 -48 -12 -15 -13 -29
-1 -36 37 -23 38 68 1 137 -48 90 -48 111 3 111 108 0 237 129 241 240 0 28 6
39 11 25 6 -14 18 -20 28 -14 21 12 -23 -119 -70 -209 -19 -37 -48 -62 -70
-62 -21 0 -45 -10 -52 -22 -10 -15 0 -18 28 -9 24 8 43 7 43 0 0 -21 -86 -158
-104 -166 -9 -3 -16 -19 -16 -35 0 -15 -9 -28 -20 -28 -11 0 -20 -13 -20 -29
0 -16 -10 -35 -22 -42 -13 -8 -20 2 -17 24 2 20 1 64 -1 97 l-5 60 -14 -70
c-7 -38 -5 -86 4 -106 20 -42 -49 -136 -264 -360 -125 -130 -265 -249 -233
-198 8 13 9 33 2 44 -20 32 -69 -25 -50 -59 11 -20 -20 -55 -115 -125 -155
-114 -175 -117 -207 -28 -17 47 -34 65 -55 57 -18 -7 -24 -3 -16 10 8 12 -4
28 -27 35 -22 7 -40 26 -40 43 0 16 -8 24 -18 18 -29 -18 -2 -90 30 -77 20 7
28 -5 28 -42 0 -29 -9 -52 -20 -52 -12 0 -29 -22 -40 -49 l-18 -49 -60 59
c-46 46 -77 59 -141 59 -79 0 -216 -52 -195 -73 6 -6 34 5 62 24 32 21 52 25
52 11 0 -38 -97 -73 -125 -45 -31 31 -56 29 -43 -4 6 -16 -5 -43 -24 -63 -33
-32 -33 -36 -2 -53 47 -26 42 -66 -11 -102 -25 -17 -38 -38 -28 -48 9 -9 25
-1 35 18 11 19 29 35 40 35 11 0 15 -9 8 -20 -7 -12 2 -14 22 -6 26 9 30 6 18
-16 -13 -23 -11 -23 11 -3 22 21 20 30 -12 54 -46 34 -20 98 43 106 21 2 27
-1 13 -7 -29 -13 -34 -68 -7 -68 10 0 22 11 27 24 4 13 18 16 32 8 14 -9 18
-26 9 -40 -9 -13 -1 -8 17 11 17 20 38 29 46 22 7 -8 7 2 0 22 -9 22 -1 45 23
64 33 25 34 28 3 17 -41 -14 -43 4 -7 69 l26 47 74 -65 c40 -35 69 -69 63 -75
-6 -6 -2 -21 10 -35 25 -31 -94 -89 -371 -180 -210 -69 -262 -59 -179 32 31
34 31 39 4 39 -18 0 -36 11 -41 25 -5 15 -16 18 -26 7 -11 -10 -8 -21 7 -26
29 -11 34 -46 7 -46 -20 0 -83 50 -194 153 -74 70 -84 70 -38 0 35 -53 -71
-160 -115 -116 -22 22 -37 183 -17 178 29 -8 100 49 113 89 8 24 27 56 42 71
36 37 34 94 -3 125 -17 14 -33 22 -35 18 -3 -4 -15 -26 -27 -48 -12 -22 -41
-43 -64 -46 -56 -9 -102 -83 -82 -134 15 -40 15 -40 18 0 2 25 7 30 14 13 6
-15 -1 -48 -15 -75 -20 -37 -20 -64 -2 -123 40 -132 47 -135 153 -76 l95 53
-42 -71 c-23 -39 -33 -71 -23 -71 10 0 13 -16 6 -35 -8 -21 11 -11 46 25 33
33 72 59 88 57 17 -1 41 -3 55 -5 14 -1 25 -19 25 -41 0 -44 -48 -63 -172 -71
-47 -3 -93 -11 -103 -17 -48 -30 -588 -47 -669 -22 -21 7 -30 24 -23 45 10 32
9 32 -18 0 -39 -48 -115 -25 -115 34 0 28 15 49 39 55 28 8 35 3 26 -21 -8
-20 -4 -26 12 -16 33 20 29 71 -7 85 -16 6 -30 33 -30 59 0 26 -10 48 -22 48
-15 0 -19 -22 -11 -59 6 -33 4 -64 -6 -70 -10 -7 -24 -38 -31 -71 -15 -68 -2
-68 -283 3 -131 33 -167 51 -185 90 -12 26 -44 58 -72 71 -27 12 -50 30 -50
40 0 10 -17 8 -37 -3 -21 -11 -43 -14 -50 -7 -7 7 -13 1 -13 -13 0 -14 13 -20
30 -14 18 7 30 0 30 -16 0 -37 -73 -17 -89 24 -7 18 -2 38 10 46 16 9 16 18 3
27 -28 17 -51 -22 -36 -61 7 -17 5 -27 -3 -24 -60 28 -237 125 -245 135 -5 7
-53 34 -105 60 -73 37 -95 59 -95 95 0 26 -10 47 -22 47 -12 0 -17 -14 -10
-31 15 -40 -6 -28 -158 93 -163 128 -277 250 -261 276 8 13 2 17 -15 11 -16
-6 -35 4 -42 22 -10 27 -3 32 38 24 27 -5 50 -1 50 10 0 12 -28 16 -65 10 -68
-11 -153 60 -125 106 7 11 2 18 -11 14 -13 -3 -28 7 -33 21 -7 19 5 23 47 14
l57 -12 -50 29 c-32 19 -58 23 -73 11 -26 -22 -55 33 -34 67 8 12 4 15 -9 7
-27 -16 -93 78 -74 108 7 11 2 19 -12 15 -43 -9 -194 303 -158 326 25 15 24
18 -6 19 -38 0 -105 125 -125 233 -9 48 0 64 55 101 83 55 103 57 77 7z m5362
-39 c-14 -9 -26 -22 -25 -29 8 -56 -3 -73 -43 -71 -36 2 -38 5 -9 12 23 6 33
21 25 40 -15 39 3 66 45 66 26 -1 28 -4 7 -18z m-2610 -191 c0 -16 -9 -24 -19
-17 -12 7 -14 2 -5 -12 11 -18 21 -18 43 -1 22 19 28 18 28 -1 0 -17 7 -19 25
-4 17 14 33 12 51 -8 21 -23 20 -28 -4 -28 -16 0 -36 -10 -44 -23 -9 -16 -5
-18 14 -7 21 12 22 10 6 -8 -25 -27 -188 -42 -188 -16 0 9 -8 11 -18 5 -9 -6
-29 3 -43 20 -20 25 -19 28 8 17 18 -7 33 -3 33 9 0 12 12 17 28 11 17 -7 32
8 40 41 14 55 45 70 45 22z m-2178 -437 c36 -27 31 -49 -17 -75 -31 -16 -48
-17 -64 -1 -30 30 -59 28 -105 -8 -36 -27 -35 -29 25 -17 57 10 62 7 52 -31
-14 -55 -43 -73 -72 -44 -16 16 -16 22 2 22 13 0 24 9 24 19 0 11 -13 15 -28
9 -17 -6 -38 6 -50 29 -30 55 -28 63 16 63 21 0 59 17 84 38 46 37 82 36 133
-4z m607 -51 l46 -38 -46 -14 c-27 -9 -55 -6 -68 7 -16 16 -15 22 4 22 22 0
22 6 2 30 -35 43 6 38 62 -7z m-492 -125 c0 -15 -21 -31 -47 -35 -41 -6 -44
-2 -23 37 24 46 70 45 70 -2z m1967 -259 c-7 -46 -7 -46 -46 -8 -35 35 -35 40
-4 46 19 3 28 16 20 30 -10 17 -7 17 12 0 13 -12 21 -43 18 -68z m1407 -46
c26 -40 17 -59 -14 -33 -26 22 -29 20 -17 -11 11 -29 7 -33 -25 -21 -30 11
-33 9 -14 -10 45 -45 -6 -104 -60 -70 -24 15 -77 38 -117 51 -84 26 -74 90 22
144 55 31 193 1 225 -50z m-3032 53 c-30 -8 -32 -14 -10 -28 34 -21 -18 -26
-70 -6 -50 19 -16 48 54 46 40 -2 50 -6 26 -12z m1308 -326 c0 -11 -13 -20
-28 -20 -16 0 -45 -6 -65 -14 -33 -12 -34 -9 -10 20 30 37 103 47 103 14z
m740 -37 c0 -46 -17 -63 -51 -50 -22 8 -22 18 -3 49 30 48 54 49 54 1z m1000
-205 c0 -9 -36 -36 -80 -58 l-80 -41 0 48 c0 26 20 73 44 103 l43 55 37 -44
c20 -25 36 -53 36 -63z m-2427 -225 c0 -22 -11 -25 -52 -10 -32 11 -52 33 -52
56 0 34 4 35 52 11 29 -15 52 -41 52 -57z m1526 32 c-1 -27 -53 -85 -77 -85
-15 0 -11 17 10 50 31 48 69 67 67 35z"/>
<path d="M2676 5869 c-8 -11 -5 -34 5 -50 30 -47 22 -96 -20 -118 -48 -26
-101 -7 -102 36 0 29 -3 29 -21 -2 -11 -19 -33 -35 -49 -35 -16 0 -29 -15 -29
-32 0 -27 5 -28 30 -8 35 29 40 27 59 -35 9 -31 5 -45 -13 -45 -21 -1 -21 -4
1 -18 56 -35 147 29 155 108 1 11 9 36 18 56 17 41 -15 175 -34 143z m-50
-249 c6 0 15 16 20 35 8 30 10 30 12 2 2 -31 -51 -91 -66 -75 -4 4 -13 31 -21
58 -12 46 -11 47 15 15 16 -19 34 -35 40 -35z"/>
<path d="M2980 5862 c0 -60 25 -83 51 -48 19 27 20 39 2 51 -32 20 -53 19 -53
-3z"/>
<path d="M1647 5508 c-6 -15 -4 -62 4 -103 9 -41 13 -91 11 -111 -7 -51 34
-94 89 -94 35 0 43 9 35 40 -8 29 -1 40 27 42 21 0 26 6 12 11 -14 6 -21 18
-15 26 5 9 -4 28 -20 41 -25 20 -30 19 -30 -8 0 -65 -70 -25 -83 49 -8 42 -2
52 37 55 29 2 46 -7 46 -26 0 -17 12 -24 29 -18 35 14 18 68 -21 68 -15 0 -28
8 -28 18 0 31 -82 41 -93 10z"/>
<path d="M1835 5415 c-12 -37 35 -74 80 -62 57 15 36 87 -26 87 -25 0 -49 -11
-54 -25z"/>
<path d="M1461 4885 c3 -68 36 -123 38 -62 1 55 69 93 94 52 7 -12 4 -15 -8
-8 -11 7 -32 -17 -46 -52 -14 -36 -38 -80 -54 -98 -25 -30 -24 -33 7 -29 48 7
104 86 120 167 13 65 13 65 -69 65 -66 0 -83 -7 -82 -35z"/>
<path d="M841 4874 c-1 -20 -9 -31 -20 -25 -10 6 -24 3 -31 -9 -7 -11 -3 -20
9 -20 35 0 24 -36 -14 -46 -24 -7 -19 -10 15 -12 46 -3 47 -5 13 -25 -31 -17
-33 -25 -10 -39 41 -26 53 -22 67 22 7 22 21 36 31 30 10 -7 10 -32 -1 -61
-12 -31 -12 -49 0 -49 11 0 20 18 20 40 0 22 10 40 22 40 15 0 13 11 -4 33
-25 29 -23 31 15 19 24 -7 49 -4 56 7 8 12 -5 21 -30 21 -39 0 -41 4 -16 33
24 30 23 31 -16 11 -36 -20 -47 -16 -74 21 -27 39 -31 40 -32 9z"/>
<path d="M700 4704 c0 -13 18 -40 40 -59 22 -18 40 -44 40 -56 0 -12 14 -39
30 -60 28 -36 29 -35 9 19 -11 33 -16 72 -10 88 8 19 2 25 -18 17 -18 -7 -43
7 -60 32 -17 24 -31 33 -31 19z"/>
<path d="M871 4595 c8 -21 4 -35 -10 -35 -13 0 -17 -10 -10 -22 10 -16 18 -16
28 0 10 16 29 10 61 -18 57 -50 59 -50 46 1 -6 22 -16 36 -22 30 -6 -6 -32 9
-59 33 -36 35 -44 37 -34 11z"/>
<path d="M765 4451 c-25 -11 -46 -34 -46 -51 -1 -20 -7 -17 -19 10 -16 37 -17
36 -19 -10 -2 -64 -21 -93 -71 -106 -27 -7 -20 -10 20 -9 33 0 77 -7 98 -16
32 -13 37 -10 25 20 -11 30 -9 32 14 14 40 -34 75 16 69 96 -6 76 -12 80 -71
52z"/>
<path d="M311 3964 c-23 -22 -10 -80 21 -92 46 -18 47 -17 68 39 11 28 28 46
39 40 10 -6 23 -4 29 6 12 18 -139 25 -157 7z"/>
<path d="M3783 5309 c-172 -183 -300 -240 -583 -259 -208 -13 -361 -81 -513
-227 -178 -171 -224 -281 -72 -177 116 80 166 92 396 95 377 6 555 110 781
453 150 227 146 279 -9 115z"/>
<path d="M4165 5229 c-52 -36 -59 -99 -13 -125 28 -15 25 -24 -22 -61 -30 -23
-64 -37 -75 -30 -12 7 -15 4 -8 -8 8 -12 -5 -28 -27 -35 -22 -7 -41 -23 -41
-36 -1 -13 -10 -6 -19 16 -14 33 -17 34 -19 6 -3 -74 95 -34 266 108 109 91
70 244 -42 165z"/>
<path d="M4268 4956 c-7 -11 16 -49 52 -83 36 -35 59 -52 52 -38 -8 14 -5 25
5 25 11 0 24 -16 29 -35 7 -25 10 -22 12 12 2 38 -6 46 -37 37 -27 -7 -50 6
-73 43 l-34 53 43 -38 c36 -32 43 -33 43 -7 0 36 -74 61 -92 31z"/>
<path d="M3940 4620 c-64 -127 -93 -148 -104 -76 -9 63 -167 171 -210 144 -97
-61 -208 -368 -134 -368 19 0 64 -22 100 -50 86 -66 92 -65 171 39 77 104 94
108 170 44 142 -118 180 -110 279 59 66 113 36 215 -82 282 -113 64 -122 60
-190 -74z m189 -51 c45 -46 39 -62 -30 -76 -34 -7 -75 -26 -91 -42 -41 -41
-86 -19 -72 35 6 24 14 33 18 21 4 -12 35 4 69 36 72 67 66 65 106 26z m-394
-5 c17 -11 -5 -30 -65 -58 -100 -46 -118 -31 -37 33 58 46 66 47 102 25z"/>
<path d="M3043 4455 c-121 -340 -154 -469 -173 -685 -31 -358 -79 -665 -117
-755 -37 -88 -28 -94 37 -23 127 137 221 516 268 1088 12 149 28 304 35 345
14 84 -23 106 -50 30z"/>
<path d="M2640 4393 c0 -69 -114 -107 -167 -54 -34 34 -73 24 -73 -19 0 -22
-9 -41 -20 -42 -11 -2 -28 -4 -38 -5 -29 -4 -51 -33 -25 -33 37 0 29 -139 -10
-154 -29 -11 -29 -15 -3 -34 55 -40 62 -103 11 -107 -31 -2 -36 2 -18 13 19
12 21 21 5 31 -13 8 -17 23 -11 33 7 12 -7 15 -34 8 -26 -7 -109 -15 -184 -18
-75 -4 -143 -15 -150 -25 -17 -24 -42 -21 -95 8 -32 18 -47 18 -66 -1 -13 -13
-39 -24 -58 -24 -19 0 -31 -12 -28 -27 10 -50 -17 -99 -52 -94 -19 3 -40 -4
-47 -16 -9 -13 -26 -11 -50 8 -34 27 -35 26 -10 -6 16 -19 41 -35 58 -35 22 0
27 -15 19 -57 -10 -48 -3 -61 38 -80 65 -30 62 -31 77 28 31 127 311 122 311
-6 0 -20 20 -12 64 25 47 40 77 51 119 42 40 -8 52 -3 45 15 -10 28 42 95 100
127 31 17 39 47 43 149 3 70 6 134 7 142 2 12 102 14 102 2 0 -2 -14 -18 -32
-36 -43 -43 -57 -146 -24 -186 19 -24 19 -29 1 -18 -14 9 -25 6 -25 -5 0 -35
35 -42 60 -12 14 17 36 30 50 30 36 0 75 53 78 105 1 31 15 46 44 47 53 3 43
-62 -15 -98 -20 -13 -37 -35 -37 -49 0 -14 -10 -25 -21 -25 -12 0 -17 -8 -11
-17 6 -10 -11 -13 -37 -8 -41 8 -47 3 -37 -33 6 -23 23 -42 38 -42 16 0 28
-17 28 -38 0 -54 69 -65 109 -18 28 33 29 44 7 71 -45 55 0 179 57 157 18 -7
27 5 27 38 0 26 16 57 35 69 22 12 27 26 15 36 -35 27 -31 63 11 85 35 19 36
25 10 52 -16 16 -24 43 -18 59 9 24 0 29 -39 21 -30 -5 -61 3 -75 20 -30 35
-59 36 -59 1z m109 -145 c10 -48 5 -66 -19 -75 -26 -10 -31 2 -26 76 7 97 24
96 45 -1z m-138 -5 c-9 -28 -24 -37 -47 -28 -31 12 -31 10 1 -23 45 -45 44
-63 -1 -63 -59 0 -59 127 0 149 56 21 63 16 47 -35z m-365 -368 c-10 -17 -106
42 -106 66 0 9 20 19 45 23 43 6 81 -50 61 -89z m-246 5 c27 -14 39 -11 48 11
6 18 3 26 -8 19 -11 -7 -20 -3 -20 8 0 28 105 16 115 -13 5 -16 -3 -21 -23
-13 -21 8 -32 1 -32 -20 0 -46 -182 -30 -183 16 -1 26 52 54 60 31 3 -11 23
-28 43 -39z"/>
<path d="M1955 4339 c-32 -19 -135 -176 -135 -206 0 -30 38 -10 50 27 18 56
66 100 111 100 51 0 49 -41 -3 -108 -24 -30 -37 -60 -30 -66 6 -7 15 -9 19 -4
157 200 151 354 -12 257z"/>
<path d="M4360 4160 c0 -10 -23 -25 -51 -32 -33 -8 -48 -23 -41 -40 6 -17 -2
-28 -21 -28 -25 0 -29 -13 -20 -60 14 -72 -1 -120 -39 -120 -32 0 -37 -32 -8
-50 26 -16 26 -110 0 -110 -12 0 -11 -15 4 -38 18 -30 18 -45 -1 -69 -21 -25
-18 -34 17 -53 62 -33 49 -144 -19 -160 -51 -12 -82 -60 -39 -60 15 0 7 -18
-18 -41 -38 -35 -41 -48 -21 -85 13 -24 22 -48 19 -53 -3 -6 5 -13 17 -17 11
-4 21 1 21 12 0 53 121 71 181 26 44 -32 59 -36 59 -15 0 16 13 34 28 40 18 7
25 27 18 54 -15 57 70 137 154 143 79 6 108 41 94 113 -11 53 -8 56 42 47 30
-5 49 -4 44 2 -19 20 -172 31 -199 14 -28 -17 -120 14 -145 49 -30 43 -1 199
42 228 59 39 60 163 1 163 -35 0 -41 11 -35 65 4 44 -2 63 -19 60 -14 -3 -25
4 -25 15 0 11 -9 20 -20 20 -11 0 -20 -9 -20 -20z m41 -170 c7 -72 -1 -113
-19 -101 -26 16 -48 125 -31 152 17 29 44 1 50 -51z m-128 -145 c-2 -25 10
-34 42 -30 33 3 45 -6 45 -35 0 -22 -8 -40 -18 -40 -10 0 -14 -16 -9 -37 7
-24 -1 -36 -22 -36 -33 0 -34 0 -41 66 -2 24 -10 59 -17 77 -7 19 -8 42 -2 52
17 28 25 22 22 -17z m293 -325 c20 0 31 -9 24 -20 -7 -12 -21 -15 -31 -9 -11
6 -19 0 -20 -15 0 -16 -12 -11 -30 13 -16 21 -29 29 -29 17 0 -21 -81 -52 -96
-37 -32 32 64 108 103 81 23 -17 58 -30 79 -30z m-253 -40 c18 0 27 -14 22
-35 -4 -19 -20 -32 -34 -29 -15 3 -36 -6 -46 -20 -13 -19 -15 -16 -7 11 7 20
13 56 14 80 0 23 6 32 11 18 6 -14 24 -25 40 -25z m107 -152 c0 -6 -7 -7 -15
-2 -8 4 -30 -8 -49 -28 -24 -25 -26 -38 -10 -45 13 -5 -1 -11 -32 -11 l-56 -2
50 54 c27 29 45 62 39 72 -7 10 7 8 31 -5 23 -12 42 -27 42 -33z"/>
<path d="M3265 4006 c-28 -10 16 -66 52 -66 11 0 24 -11 29 -25 6 -14 9 -4 8
22 -3 49 -47 84 -89 69z"/>
<path d="M3710 4000 c-81 -31 -265 -356 -240 -424 29 -75 158 -88 232 -23 64
56 143 -19 124 -117 -12 -60 -38 -80 -261 -199 -277 -148 -406 -263 -626 -557
-183 -244 -347 -394 -729 -666 -27 -20 -50 -45 -50 -55 0 -31 208 84 444 244
30 20 66 32 81 26 25 -10 100 73 287 319 110 146 254 262 448 363 356 186 565
461 567 746 1 221 -140 395 -277 343z m98 -131 c7 -20 3 -26 -11 -17 -14 9
-18 5 -9 -9 8 -13 28 -23 44 -23 21 0 28 -19 25 -69 -5 -62 -9 -66 -45 -47
-22 12 -58 23 -80 24 -21 1 -42 16 -47 32 -6 24 -4 25 11 3 15 -21 21 -19 32
8 12 33 15 33 42 -3 18 -24 29 -28 29 -12 1 15 10 21 21 14 11 -7 20 -2 20 11
0 13 -12 19 -26 13 -14 -5 -43 3 -64 18 -21 16 -27 28 -14 28 13 0 24 14 24
30 0 39 32 39 48 -1z"/>
<path d="M2341 3565 c-59 -185 -70 -253 -81 -487 -24 -543 -374 -879 -910
-877 -486 2 -647 350 -413 888 57 131 101 245 98 254 -11 33 -48 -19 -138
-193 -419 -807 -176 -1469 488 -1331 515 107 986 755 1024 1411 6 99 15 263
21 365 14 239 -5 233 -89 -30z m-1464 -1296 c31 -69 29 -109 -6 -109 -18 0
-25 12 -18 30 7 19 -1 30 -23 30 -24 0 -30 10 -21 33 7 19 1 41 -13 50 -18 12
-13 16 16 17 25 0 51 -20 65 -51z m183 -119 c0 -14 27 -35 60 -47 63 -22 82
-63 29 -63 -17 0 -26 -9 -19 -20 7 -11 3 -20 -9 -20 -11 0 -21 14 -21 30 0 17
-13 30 -30 30 -16 0 -30 -17 -30 -39 0 -57 -35 -69 -60 -21 -25 47 -20 163 8
183 26 19 72 -2 72 -33z m333 -160 c-18 -14 -34 -41 -35 -62 0 -22 -6 -27 -11
-13 -6 14 -20 19 -32 12 -14 -9 -16 5 -8 40 9 33 6 53 -8 53 -12 0 -16 8 -10
19 7 11 36 10 75 -3 55 -19 58 -25 29 -46z"/>
<path d="M1420 3610 c-13 -16 -33 -25 -42 -19 -10 6 -18 2 -18 -10 0 -11 -17
-21 -39 -21 -21 0 -44 -8 -50 -18 -6 -10 9 -13 34 -7 38 10 41 7 20 -18 -20
-25 -19 -30 4 -30 16 0 24 8 17 19 -6 11 1 15 16 9 15 -5 26 -19 24 -29 -2
-11 9 -19 25 -19 42 0 35 28 -13 54 l-42 22 42 30 c23 16 51 24 62 17 11 -7
14 1 8 19 -15 38 -17 38 -48 1z"/>
<path d="M1182 3522 c-21 -14 -18 -21 15 -31 40 -13 49 -37 48 -135 0 -44 39
-58 70 -25 20 22 16 33 -20 58 -24 17 -32 31 -18 31 18 0 16 16 -10 60 -39 65
-44 68 -85 42z"/>
<path d="M5027 3421 c-190 -125 -379 -311 -399 -393 -13 -51 5 -122 25 -102 7
7 29 4 50 -7 46 -25 51 10 7 54 -67 66 32 173 326 353 166 102 224 162 190
196 -11 11 -92 -30 -199 -101z"/>
<path d="M2030 3500 c7 -11 1 -20 -14 -20 -14 -1 10 -32 54 -70 44 -39 86 -70
95 -70 25 0 -53 83 -95 101 -37 15 -36 17 9 18 47 1 47 2 10 30 -45 34 -77 40
-59 11z"/>
<path d="M3222 3441 c-19 -11 -20 -20 -4 -30 12 -7 22 -5 22 6 0 11 28 6 61
-11 34 -16 67 -24 74 -17 7 7 -7 18 -31 24 -24 6 -40 18 -35 25 12 20 -57 22
-87 3z"/>
<path d="M1484 3230 c-101 -204 -99 -183 -14 -219 39 -16 91 -53 116 -82 l46
-53 65 54 c176 149 167 345 -21 442 -89 46 -103 35 -192 -142z m172 -50 c-103
-13 -109 -10 -76 30 15 18 41 26 63 19 23 -7 37 -2 38 15 0 16 12 10 31 -14
29 -38 26 -40 -56 -50z"/>
<path d="M5162 3082 c-2 -47 -3 -47 -42 -12 -35 32 -40 32 -40 4 0 -18 18 -42
40 -54 26 -14 40 -14 40 -1 0 11 16 14 35 7 28 -11 31 -8 13 15 -13 16 -28 43
-34 59 -7 19 -11 12 -12 -18z"/>
<path d="M3941 3061 c-23 -15 -18 -23 27 -44 49 -22 52 -27 19 -40 -33 -12
-32 -14 8 -16 25 0 45 -11 45 -22 0 -13 -18 -16 -45 -8 -25 8 -39 7 -31 -1 23
-24 121 -29 155 -8 26 16 24 18 -9 13 -24 -3 -38 5 -35 20 3 14 -17 36 -43 48
-29 13 -44 33 -38 49 12 32 -11 36 -53 9z"/>
<path d="M4243 2868 c-77 -245 -112 -450 -152 -894 -36 -393 -97 -507 -331
-612 -133 -60 -148 -54 -89 39 110 174 143 315 180 749 26 317 52 478 99 620
10 28 8 32 -5 13 -11 -14 -27 -25 -37 -23 -59 12 -200 -492 -218 -780 -19
-299 -49 -460 -113 -595 -65 -138 -64 -143 56 -210 157 -87 344 37 446 295 64
162 68 165 151 93 135 -119 244 -97 420 86 155 162 217 197 310 178 54 -11 73
0 168 95 59 60 131 124 161 144 110 76 249 404 194 459 -31 31 -53 6 -97 -115
-27 -72 -49 -102 -80 -106 -24 -4 -52 -30 -65 -61 -27 -66 -113 -162 -147
-165 -13 -1 -44 -1 -68 1 -24 2 -95 -31 -157 -73 -245 -164 -303 -178 -437
-101 -171 98 -200 227 -146 647 75 575 64 654 -43 316z m13 -968 c-10 -63 16
-85 28 -25 6 27 15 20 39 -28 24 -48 27 -70 10 -87 -17 -18 -13 -22 17 -16 22
4 38 21 35 37 -3 18 12 32 35 34 43 3 59 -81 21 -104 -11 -7 -14 -28 -8 -47 8
-26 6 -28 -9 -7 -16 23 -23 21 -41 -10 -21 -36 -30 -17 -21 46 2 14 -44 46
-67 47 -8 0 -15 -13 -15 -29 0 -16 -7 -33 -16 -38 -9 -6 -12 22 -7 61 4 39 -1
76 -12 83 -12 7 -23 36 -25 63 -6 70 -3 80 22 80 14 0 19 -24 14 -60z"/>
<path d="M1965 2974 c-24 -11 -50 -37 -57 -59 -8 -28 -25 -36 -58 -30 -34 6
-52 -4 -68 -39 -12 -27 -31 -43 -41 -37 -10 7 -27 -4 -38 -24 -24 -42 -204
-51 -218 -10 -5 14 -20 25 -34 25 -17 0 -22 19 -17 55 8 52 7 53 -22 17 -35
-43 -103 -29 -85 18 15 40 8 38 -49 -12 -33 -28 -64 -38 -101 -30 -36 7 -57 1
-65 -20 -9 -23 -20 -25 -52 -8 -24 13 -40 14 -40 2 0 -10 -6 -34 -13 -54 -10
-25 -7 -30 12 -18 20 12 24 1 17 -47 -5 -35 -2 -63 7 -63 10 0 17 -26 17 -59
0 -51 6 -57 49 -49 44 8 107 -53 95 -92 -2 -5 12 -10 31 -10 19 0 37 -16 41
-35 9 -45 29 -44 72 3 28 31 31 47 13 80 -15 28 -15 42 -2 42 12 0 21 -14 21
-32 0 -24 13 -28 55 -19 32 6 79 -1 112 -19 41 -21 67 -24 95 -9 27 14 38 14
38 -1 0 -13 10 -16 22 -9 12 7 17 31 11 53 -16 62 75 143 144 130 68 -14 155
46 137 93 -18 47 5 93 46 93 20 0 41 14 47 30 7 17 1 30 -13 30 -15 1 -17 6
-3 15 61 44 -32 133 -106 99z m-115 -227 c-16 58 10 79 52 41 40 -36 21 -88
-31 -88 -38 0 -97 75 -80 101 10 16 24 5 42 -33 15 -32 23 -41 17 -21z m-645
-87 l55 -43 -2 57 c0 31 -6 45 -11 31 -13 -32 -47 -12 -47 26 0 42 56 35 84
-10 19 -30 31 -34 51 -17 20 16 33 16 51 -2 18 -18 18 -27 -3 -40 -19 -12 -21
-21 -5 -31 38 -23 3 -52 -48 -39 -44 11 -106 -49 -79 -76 5 -5 -5 -9 -21 -9
-17 0 -30 17 -30 41 1 31 5 35 18 15 13 -21 19 -21 28 4 12 32 -50 66 -101 56
-17 -3 -25 21 -24 71 1 47 7 63 15 43 8 -19 39 -53 69 -77z m454 63 c55 21 75
8 45 -28 -11 -14 -24 -52 -27 -85 l-7 -60 -96 93 -95 93 66 -15 c37 -8 88 -7
114 2z m-99 -79 c0 -9 -11 -27 -24 -40 -19 -19 -15 -24 18 -24 23 0 57 -24 77
-55 31 -48 32 -51 2 -28 -24 21 -33 22 -33 3 0 -15 -13 -19 -35 -9 -19 8 -53
14 -75 13 -36 -2 -36 1 -8 22 23 17 28 37 16 68 -13 36 -10 42 16 32 22 -9 28
-5 18 11 -8 12 -5 23 7 23 11 0 21 -7 21 -16z"/>
<path d="M2652 2930 c41 -39 78 -67 83 -62 11 11 -116 132 -139 132 -11 0 15
-32 56 -70z"/>
<path d="M3651 2866 c-10 -27 -17 -29 -29 -8 -14 21 -26 19 -60 -11 -24 -20
-54 -37 -68 -37 -13 -1 -23 -21 -22 -45 0 -25 -6 -45 -15 -45 -10 0 -17 -12
-17 -28 0 -32 -114 -84 -165 -75 -21 3 -35 -7 -35 -25 0 -17 -16 -39 -36 -50
-19 -10 -37 -40 -39 -65 -2 -26 -28 -67 -58 -91 -52 -42 -53 -46 -21 -82 19
-20 34 -48 34 -61 0 -12 18 -23 40 -23 22 0 40 -10 40 -21 0 -12 9 -16 20 -9
11 7 20 1 21 -14 0 -17 9 -14 27 9 32 42 89 45 143 7 45 -31 120 10 125 69 9
112 46 213 92 252 29 25 54 61 58 81 3 20 11 45 18 56 6 11 15 47 19 80 4 33
16 66 26 74 11 8 0 31 -28 55 -57 49 -54 49 -70 7z m-11 -106 c-19 -12 -27
-43 -23 -89 3 -41 -3 -71 -15 -71 -12 0 -21 -7 -19 -15 6 -27 -27 -85 -43 -75
-8 5 -15 -13 -15 -40 0 -61 -43 -170 -67 -170 -21 0 -11 2 -104 -19 -91 -21
-93 13 -4 57 42 20 60 22 66 5 4 -13 16 -23 27 -23 11 0 14 18 7 40 -9 29 -5
37 16 29 19 -8 32 6 39 41 9 47 7 49 -24 21 -49 -45 -121 -40 -121 7 0 83 166
177 188 107 6 -19 6 21 0 89 -10 123 -9 123 46 130 68 8 84 0 46 -24z m-172
-153 c-32 -26 -68 -47 -81 -47 -13 0 -27 -11 -32 -24 -5 -16 -12 -17 -21 -3
-7 12 22 38 66 59 43 21 83 56 90 78 10 30 16 33 24 11 7 -17 -12 -47 -46 -74z
m-161 -160 c-2 -55 3 -59 60 -54 36 3 46 0 23 -6 -22 -6 -51 -20 -65 -32 -17
-14 -25 -13 -25 3 0 44 -60 22 -62 -23 0 -25 -6 -33 -12 -18 -16 39 36 206 62
197 12 -5 21 -35 19 -67z"/>
<path d="M2541 2847 c-1 -13 10 -28 24 -34 19 -7 18 -15 -4 -30 -21 -15 -35
-14 -47 3 -10 14 -12 7 -4 -19 8 -32 2 -46 -24 -53 -33 -9 -33 -10 -1 -12 19
-1 35 -12 35 -23 0 -12 -11 -15 -25 -6 -17 10 -16 3 3 -19 19 -24 35 -28 51
-14 14 11 32 13 41 5 9 -8 10 -4 2 10 -8 14 -4 25 8 25 12 0 17 9 10 20 -14
23 -51 27 -48 5 6 -38 -4 -52 -20 -27 -21 33 -6 87 20 71 10 -6 18 0 18 15 1
19 5 18 19 -3 10 -17 24 -24 31 -18 7 7 -11 38 -38 70 -28 31 -51 47 -51 34z"/>
<path d="M4580 2710 c0 -17 -18 -30 -41 -30 -34 0 -37 -6 -19 -40 12 -23 15
-52 7 -65 -30 -47 -22 -154 11 -164 50 -16 42 -136 -10 -160 -57 -24 -53 -140
5 -143 77 -4 89 -8 78 -27 -6 -10 -3 -23 7 -30 10 -6 23 2 29 18 6 17 29 26
52 21 30 -6 41 3 41 30 0 98 151 165 228 102 40 -33 82 -4 100 69 8 30 27 49
51 49 25 0 35 12 31 35 -4 19 -8 46 -8 60 -1 14 -20 25 -42 25 -22 0 -40 13
-40 30 0 17 -17 30 -39 30 -54 0 -63 24 -32 85 30 57 22 75 -31 75 -19 0 -38
10 -42 23 -5 15 -19 12 -39 -9 -62 -61 -133 -64 -160 -6 -27 59 -137 77 -137
22z m121 -106 c46 -53 154 -104 127 -61 -17 28 51 96 84 84 29 -12 40 -67 12
-67 -9 0 -27 11 -40 24 -19 19 -24 17 -24 -8 0 -18 -6 -49 -13 -68 -11 -27 -6
-32 19 -22 18 7 38 4 44 -5 6 -10 -5 -22 -25 -27 -19 -5 1 -11 45 -12 107 -3
134 -22 101 -68 -25 -33 -27 -33 -37 5 -12 47 -115 9 -153 -55 -14 -24 -20
-26 -20 -7 -1 22 -7 23 -30 4 -16 -14 -39 -18 -51 -11 -14 9 -19 -3 -14 -33 5
-26 4 -34 -1 -19 -8 24 -12 24 -27 0 -14 -23 -17 -23 -17 2 1 54 68 170 99
170 41 0 50 67 11 83 -20 7 -44 -3 -60 -25 -15 -21 -34 -31 -42 -23 -8 8 -3
28 11 45 14 17 16 30 5 30 -27 0 -49 -58 -33 -84 7 -11 1 -29 -14 -40 -22 -15
-20 -17 7 -9 23 8 35 1 35 -18 0 -17 -19 -29 -49 -29 -64 0 -91 76 -41 113 28
20 33 42 22 106 -15 96 1 101 69 25z m260 -272 c-18 -23 -16 -34 13 -52 34
-22 34 -23 -1 -12 -20 7 -49 12 -65 12 -15 0 -28 10 -28 21 0 12 9 16 20 9 11
-7 20 2 20 19 0 17 15 31 32 31 26 0 28 -6 9 -28z"/>
<path d="M2520 1963 c0 -12 11 -23 24 -23 19 0 19 -5 0 -24 -35 -35 -29 -76
11 -76 29 1 30 4 6 19 -17 10 -23 25 -16 33 8 8 33 -2 55 -22 63 -57 45 -6
-21 58 -32 32 -59 48 -59 35z"/>
<path d="M1848 1933 c-7 -18 -26 -33 -42 -33 -22 0 -27 -13 -19 -44 6 -24 1
-56 -12 -71 -25 -32 9 -64 68 -65 56 0 98 -23 84 -45 -8 -13 -3 -15 13 -5 21
13 11 31 -40 73 -37 31 -61 62 -54 70 8 7 14 3 14 -10 0 -12 14 -23 31 -23 19
0 26 10 17 25 -8 14 -8 19 1 11 8 -7 37 -5 63 5 65 25 155 4 184 -43 20 -31
19 -38 -6 -38 -16 0 -30 13 -30 28 0 37 -97 60 -132 31 -16 -14 -23 -42 -16
-68 6 -25 -1 -58 -16 -74 -49 -52 -61 -191 -21 -233 18 -19 19 -38 5 -64 -30
-55 -25 -76 22 -91 27 -8 38 -25 33 -47 -7 -25 9 -40 58 -55 51 -16 67 -15 67
4 0 13 14 36 31 50 21 17 27 43 19 80 -14 61 87 188 149 189 18 0 32 19 33 46
2 25 20 58 40 74 32 23 34 34 13 69 -14 22 -25 55 -25 72 0 24 -11 28 -45 17
-103 -34 -133 -19 -163 78 -9 29 -19 32 -52 14 -32 -17 -40 -15 -40 8 0 45
-43 62 -64 25 -25 -46 -50 -41 -107 20 -41 44 -50 47 -61 20z m230 -200 c17
-21 15 -34 -12 -55 -22 -19 -29 -20 -19 -3 10 16 3 25 -18 25 -28 0 -29 5 -9
30 30 37 30 36 58 3z m138 -58 c12 -25 22 -33 23 -17 2 38 75 -59 75 -99 -1
-17 -18 -32 -40 -34 -39 -3 -77 -44 -137 -148 -30 -54 -57 -44 -57 20 0 35
134 153 165 147 47 -9 44 30 -4 55 -24 14 -43 14 -51 2 -15 -25 -110 17 -110
48 0 73 103 93 136 26z m-154 -171 c2 -34 6 -41 12 -19 5 19 26 35 47 35 37 0
37 -2 -4 -43 -48 -48 -97 -14 -97 68 0 58 40 19 42 -41z m-77 -39 c-8 -23 -4
-27 15 -15 17 11 21 8 12 -7 -8 -13 -5 -23 7 -23 11 0 21 -14 21 -32 0 -17 17
-56 39 -86 28 -39 33 -62 18 -83 -17 -24 -19 -22 -10 6 7 19 3 35 -8 35 -10 0
-19 -11 -19 -25 -1 -17 -6 -16 -19 4 -10 16 -14 36 -8 46 5 9 3 15 -7 13 -45
-8 -61 6 -52 42 6 22 4 55 -4 75 -30 72 -29 159 1 118 14 -20 21 -51 14 -68z"/>
<path d="M3337 1508 c10 -6 14 -27 9 -49 -6 -21 -1 -39 12 -39 12 0 22 -14 22
-31 0 -17 10 -25 21 -18 14 9 11 25 -11 48 -17 20 -29 47 -26 61 3 14 -5 28
-19 31 -15 3 -18 2 -8 -3z"/>
<path d="M5193 4695 c-32 -57 -33 -66 -4 -86 17 -13 31 -41 31 -62 0 -28 24
-45 88 -64 49 -15 105 -44 124 -65 19 -21 49 -38 66 -37 21 0 12 12 -23 34
-30 19 -55 41 -55 50 0 8 -16 15 -36 15 -20 0 -55 18 -79 39 -30 28 -45 33
-52 15 -5 -13 -11 5 -11 40 -1 35 -11 69 -22 76 -13 8 -13 26 2 53 35 67 10
59 -29 -8z"/>
<path d="M4946 1229 c-18 -19 -13 -27 25 -34 27 -5 49 -1 49 9 0 10 10 12 23
4 13 -8 19 -3 13 14 -12 36 -80 40 -110 7z"/>
<path d="M4835 1138 c-19 -34 -35 -92 -35 -129 0 -43 -13 -74 -35 -87 -32 -19
-32 -21 -1 -21 37 -1 100 76 84 102 -6 9 13 8 42 -3 72 -27 85 -25 41 7 -25
18 -33 42 -26 71 8 28 2 48 -15 55 -15 6 -23 23 -17 39 19 48 -1 30 -38 -34z"/>
<path d="M4978 1155 c-32 -98 2 -167 58 -118 44 38 61 123 24 123 -11 0 -20
-22 -20 -50 0 -27 -9 -50 -20 -50 -12 0 -15 21 -8 50 9 38 -22 80 -34 45z"/>
<path d="M3224 935 c-12 -25 -25 -63 -28 -85 -3 -22 -26 -49 -51 -60 -25 -11
-45 -35 -45 -54 0 -18 -9 -39 -19 -45 -10 -7 -17 -47 -16 -91 4 -93 -12 -115
-56 -79 -27 22 -35 22 -50 -2 -22 -35 -15 -64 19 -75 19 -6 22 4 12 39 -13 43
-12 44 14 11 34 -45 87 0 100 86 7 43 11 39 32 -33 34 -116 17 -146 -83 -150
-133 -5 -161 1 -196 47 -31 41 -34 41 -67 8 -20 -19 -47 -30 -63 -24 -15 6
-27 2 -27 -9 0 -10 9 -19 20 -19 26 0 110 -96 110 -127 0 -12 25 -26 55 -29
30 -4 55 -15 55 -26 0 -10 27 -5 60 12 78 40 77 42 -35 33 -52 -4 -89 -1 -82
6 7 7 -9 35 -35 61 -44 44 -65 110 -36 110 7 0 30 -22 51 -49 34 -44 177 -68
177 -30 0 6 18 12 40 14 62 4 48 -13 -45 -54 l-85 -38 77 2 c137 3 198 181
116 335 -38 72 -37 119 4 121 13 0 49 22 81 48 32 26 70 43 85 37 44 -17 53
48 14 102 -46 63 -74 65 -103 7z m76 -25 c0 -16 -18 -38 -40 -50 -46 -25 -53
-2 -19 62 22 42 59 34 59 -12z"/>
<path d="M2820 719 c0 -86 42 -127 93 -89 35 27 33 29 -20 29 -52 1 -57 6 -49
61 5 33 2 60 -7 60 -10 0 -17 -28 -17 -61z"/>
<path d="M3540 552 c0 -16 -11 -33 -25 -38 -17 -7 -13 -19 15 -41 46 -37 70
-41 70 -13 0 11 14 20 31 20 19 0 29 14 25 33 -9 51 -56 57 -56 9 0 -23 -8
-42 -19 -42 -29 0 -44 36 -21 50 26 16 26 50 0 50 -11 0 -20 -13 -20 -28z"/>
<path d="M2203 387 c4 -46 -3 -77 -18 -82 -14 -5 -25 -19 -25 -31 0 -12 16 -7
35 12 37 37 54 174 21 174 -10 0 -16 -33 -13 -73z"/>
<path d="M2467 269 c-8 -20 -25 -26 -53 -17 -39 12 -40 11 -9 -19 41 -42 63
-42 98 1 23 29 23 31 -1 17 -22 -13 -26 -9 -16 16 7 18 8 33 3 33 -6 0 -16
-14 -22 -31z"/>
</g>
</svg>
